<svg version="1.0" id="el_SJFJB8tpQ" xmlns="http://www.w3.org/2000/svg" xmlns:xlink="http://www.w3.org/1999/xlink" x="0px" y="0px" viewBox="0 0 600 400" style="enable-background:new 0 0 600 400;" xml:space="preserve"><style>@-webkit-keyframes el_HyIfFyB8t67_Animation{
87.22%{opacity: 0;}
87.50%{opacity: 1;}
100%{opacity: 1;}
0%{opacity: 0;}}
@keyframes el_HyIfFyB8t67_Animation{
87.22%{opacity: 0;}
87.50%{opacity: 1;}
100%{opacity: 1;}
0%{opacity: 0;}}
@-webkit-keyframes el_r12bY1SLKam_Animation{
74.72%{opacity: 0;}
75%{opacity: 1;}
87.22%{opacity: 1;}
87.50%{opacity: 0;}
0%{opacity: 0;}}
@keyframes el_r12bY1SLKam_Animation{
74.72%{opacity: 0;}
75%{opacity: 1;}
87.22%{opacity: 1;}
87.50%{opacity: 0;}
0%{opacity: 0;}}
@-webkit-keyframes el_SJLbYJB8Ypm_Animation{
62.22%{opacity: 0;}
62.50%{opacity: 1;}
74.72%{opacity: 1;}
75%{opacity: 0;}
0%{opacity: 0;}
100%{opacity: 0;}}
@keyframes el_SJLbYJB8Ypm_Animation{
62.22%{opacity: 0;}
62.50%{opacity: 1;}
74.72%{opacity: 1;}
75%{opacity: 0;}
0%{opacity: 0;}
100%{opacity: 0;}}
@-webkit-keyframes el_HyyZKyHIFTQ_Animation{
49.72%{opacity: 0;}
50%{opacity: 1;}
62.22%{opacity: 1;}
62.50%{opacity: 0;}
0%{opacity: 0;}}
@keyframes el_HyyZKyHIFTQ_Animation{
49.72%{opacity: 0;}
50%{opacity: 1;}
62.22%{opacity: 1;}
62.50%{opacity: 0;}
0%{opacity: 0;}}
@-webkit-keyframes el_BJwgt1rLYTQ_Animation{
37.22%{opacity: 0;}
37.50%{opacity: 1;}
49.72%{opacity: 1;}
50%{opacity: 0;}
0%{opacity: 0;}
100%{opacity: 0;}}
@keyframes el_BJwgt1rLYTQ_Animation{
37.22%{opacity: 0;}
37.50%{opacity: 1;}
49.72%{opacity: 1;}
50%{opacity: 0;}
0%{opacity: 0;}
100%{opacity: 0;}}
@-webkit-keyframes el_S1llFJSLFpX_Animation{
24.72%{opacity: 0;}
25%{opacity: 1;}
37.22%{opacity: 1;}
37.50%{opacity: 0;}
0%{opacity: 0;}}
@keyframes el_S1llFJSLFpX_Animation{
24.72%{opacity: 0;}
25%{opacity: 1;}
37.22%{opacity: 1;}
37.50%{opacity: 0;}
0%{opacity: 0;}}
@-webkit-keyframes el_Bk_K1SUYaQ_Animation{
12.22%{opacity: 0;}
12.50%{opacity: 1;}
24.72%{opacity: 1;}
25%{opacity: 0;}
0%{opacity: 0;}
100%{opacity: 0;}}
@keyframes el_Bk_K1SUYaQ_Animation{
12.22%{opacity: 0;}
12.50%{opacity: 1;}
24.72%{opacity: 1;}
25%{opacity: 0;}
0%{opacity: 0;}
100%{opacity: 0;}}
@-webkit-keyframes el_BJZKySLK67_Animation{
0%{opacity: 1;}
12.22%{opacity: 1;}
12.50%{opacity: 0;}
100%{opacity: 0;}}
@keyframes el_BJZKySLK67_Animation{
0%{opacity: 1;}
12.22%{opacity: 1;}
12.50%{opacity: 0;}
100%{opacity: 0;}}
#el_SJFJB8tpQ *{-webkit-animation-duration: 12s;animation-duration: 12s;-webkit-animation-iteration-count: infinite;animation-iteration-count: infinite;-webkit-animation-timing-function: cubic-bezier(0, 0, 1, 1);animation-timing-function: cubic-bezier(0, 0, 1, 1);}
#el_S1lYJSIt6m{fill: #E0E0E0;}
#el_BJZKySLK67{-webkit-animation-name: el_BJZKySLK67_Animation;animation-name: el_BJZKySLK67_Animation;opacity: 1;}
#el_Bk_K1SUYaQ{-webkit-animation-name: el_Bk_K1SUYaQ_Animation;animation-name: el_Bk_K1SUYaQ_Animation;opacity: 0;}
#el_S1llFJSLFpX{-webkit-animation-name: el_S1llFJSLFpX_Animation;animation-name: el_S1llFJSLFpX_Animation;opacity: 0;}
#el_HyIfFyB8t67{-webkit-animation-name: el_HyIfFyB8t67_Animation;animation-name: el_HyIfFyB8t67_Animation;opacity: 0;}
#el_r12bY1SLKam{-webkit-animation-name: el_r12bY1SLKam_Animation;animation-name: el_r12bY1SLKam_Animation;opacity: 0;}
#el_SJLbYJB8Ypm{-webkit-animation-name: el_SJLbYJB8Ypm_Animation;animation-name: el_SJLbYJB8Ypm_Animation;opacity: 0;}
#el_HyyZKyHIFTQ{-webkit-animation-name: el_HyyZKyHIFTQ_Animation;animation-name: el_HyyZKyHIFTQ_Animation;opacity: 0;}
#el_BJwgt1rLYTQ{-webkit-animation-name: el_BJwgt1rLYTQ_Animation;animation-name: el_BJwgt1rLYTQ_Animation;opacity: 0;}</style>

<rect width="600" height="400" id="el_S1lYJSIt6m"/>
<g id="el_BJZKySLK67">
	<path d="M198.1,173.3v9.5h-0.7c0-1.2-0.3-2.3-0.8-3.5c-0.5-1.2-1.2-2-2.1-2.5c-0.8-0.4-1.7-0.7-2.6-0.8c-0.9-0.1-1.8-0.2-2.7-0.3&#10;&#9;&#9;c-0.5,0-1.2-0.1-2.1-0.1c-0.9,0-1.9,0-3-0.1c-1,0-2,0-3,0c-0.9,0-1.6,0-2.1,0V209c0,0.7,0,1.6,0,2.6c0,1,0,2,0,3.1&#10;&#9;&#9;c0,1.1,0.2,2.1,0.3,3.1c0.2,1,0.4,1.8,0.8,2.5c0.2,0.4,0.5,0.8,1,1.2c0.5,0.4,1,0.7,1.6,0.9c0.6,0.3,1.2,0.5,1.8,0.6&#10;&#9;&#9;c0.6,0.1,1.2,0.2,1.7,0.2v0.6h-20.1v-0.6c0.5,0,1-0.1,1.7-0.2s1.2-0.3,1.8-0.6c0.6-0.3,1.1-0.6,1.6-0.9c0.5-0.4,0.8-0.8,1.1-1.2&#10;&#9;&#9;c0.4-0.7,0.6-1.5,0.8-2.4c0.1-0.9,0.2-1.8,0.3-2.8s0.1-1.9,0-3c0-1,0-2,0-3v-33.4c-0.5,0-1.2,0-2.1,0c-0.9,0-1.9,0-3,0&#10;&#9;&#9;c-1,0-2,0-3,0.1c-0.9,0-1.6,0.1-2.1,0.1c-0.9,0.1-1.8,0.2-2.7,0.3c-0.9,0.1-1.7,0.3-2.6,0.8c-0.9,0.5-1.6,1.4-2.1,2.5&#10;&#9;&#9;c-0.5,1.2-0.8,2.3-0.8,3.5h-0.7v-9.5H198.1z" id="el_B1GKJSIFTX"/>
	<path d="M243.9,220.1c0.4,0.9,1.2,1.6,2.3,2.1c1.1,0.5,2.2,0.8,3.2,0.8v0.7h-18.1V223c1.1,0,2.1-0.2,3.2-0.7s1.7-1.2,1.8-2.2&#10;&#9;&#9;c0-0.4-0.1-1.1-0.4-2.1c-0.3-1-0.8-2.3-1.4-3.8c-0.6-1.5-1.3-3.3-2.1-5.3c-0.8-2-1.7-4.1-2.6-6.4h-17.4L208,214&#10;&#9;&#9;c-0.6,1.6-0.9,3-0.9,4c0,1,0.3,1.9,0.6,2.7c0.4,0.9,1.2,1.5,2.3,1.8c1.1,0.3,2.2,0.5,3.2,0.5v0.7h-18.1V223c1.6,0,2.9-0.4,3.9-1.2&#10;&#9;&#9;c1-0.8,1.9-1.6,2.8-2.4c0.9-0.9,1.7-2.1,2.5-3.6c0.8-1.5,1.5-3.1,2.1-4.6c0.9-2.4,1.8-4.5,2.5-6.4c0.8-1.9,1.6-4.1,2.6-6.5&#10;&#9;&#9;c0.9-2.4,1.9-4.9,2.9-7.4c2.3-5.9,5-12.5,8-20c3.9,9,7.4,17,10.5,24.2c1.3,3,2.6,6,3.9,9s2.4,5.6,3.5,7.9c1,2.3,1.8,4.2,2.5,5.7&#10;&#9;&#9;C243.5,219.1,243.9,219.9,243.9,220.1z M229,200.3l-8-19.3l-7.7,19.3H229z M230.7,166.6h-17v-2.4h17V166.6z" id="el_S1mtkr8KpX"/>
	<path d="M309.2,220.1c0.8,0.9,1.6,1.6,2.5,2.2c0.9,0.5,1.9,0.8,3,0.8v0.6h-18.7V223c1,0,2-0.3,3.1-0.9c1.1-0.6,1.8-1.3,2.3-2.2&#10;&#9;&#9;c0.2-0.4,0.3-1.1,0.4-2c0.1-0.9,0.1-2,0-3.2s-0.1-2.6-0.3-4.1c-0.1-1.5-0.3-3.1-0.5-4.8l-2.5-25.1l-16.1,43h-0.6l-18.6-43.5&#10;&#9;&#9;l-1.9,25.9c-0.1,1-0.2,2.1-0.2,3.5c0,1.4-0.1,2.8,0,4.2s0.1,2.7,0.1,3.8c0.1,1.1,0.2,1.9,0.5,2.3c0.5,0.8,1.2,1.5,2.3,2.2&#10;&#9;&#9;c1.1,0.6,2.1,0.9,3.1,0.9v0.6h-16.8V223c1,0,2-0.3,2.9-0.8c0.9-0.5,1.8-1.2,2.5-2.2c0.4-0.4,0.7-1.2,1.1-2.2&#10;&#9;&#9;c0.3-1.1,0.6-2.2,0.9-3.5c0.3-1.3,0.5-2.5,0.7-3.7c0.2-1.2,0.3-2.2,0.4-3.1l1.8-23.3c0.1-1.3,0.2-2.7,0.2-4.1&#10;&#9;&#9;c0-1.4-0.2-2.5-0.6-3.3c-0.2-0.4-0.7-0.8-1.3-1.2c-0.6-0.4-1.4-0.7-2.2-0.9c-0.8-0.2-1.7-0.4-2.5-0.6c-0.8-0.1-1.5-0.2-1.9-0.2&#10;&#9;&#9;v-0.7h14.4l17.1,40.1c3.1-8.2,5.6-14.8,7.5-20.1c1.9-5.2,3.3-9.3,4.3-12.3c1.2-3.5,1.9-6,2.3-7.8h13.2v0.7c-1,0-2,0.1-3,0.4&#10;&#9;&#9;c-1,0.2-1.8,0.7-2.5,1.4c-0.6,0.8-1,2.1-1,3.7c-0.1,1.7,0,3.6,0.3,5.8l2.2,21.8l0.6,5.9c0.2,1.5,0.4,3,0.7,4.3&#10;&#9;&#9;C308.4,218.6,308.7,219.6,309.2,220.1z" id="el_Hy4YkrUF6m"/>
	<path d="M365.7,220.1c0.4,0.9,1.2,1.6,2.3,2.1c1.1,0.5,2.2,0.8,3.2,0.8v0.7h-18.1V223c1.1,0,2.1-0.2,3.2-0.7s1.7-1.2,1.8-2.2&#10;&#9;&#9;c0-0.4-0.1-1.1-0.4-2.1c-0.3-1-0.8-2.3-1.4-3.8c-0.6-1.5-1.3-3.3-2.1-5.3c-0.8-2-1.7-4.1-2.6-6.4h-17.4l-4.5,11.5&#10;&#9;&#9;c-0.6,1.6-0.9,3-0.9,4c0,1,0.3,1.9,0.6,2.7c0.4,0.9,1.2,1.5,2.3,1.8c1.1,0.3,2.2,0.5,3.2,0.5v0.7H317V223c1.6,0,2.9-0.4,3.9-1.2&#10;&#9;&#9;c1-0.8,1.9-1.6,2.8-2.4c0.9-0.9,1.7-2.1,2.5-3.6c0.8-1.5,1.5-3.1,2.1-4.6c0.9-2.4,1.8-4.5,2.5-6.4c0.8-1.9,1.6-4.1,2.6-6.5&#10;&#9;&#9;c0.9-2.4,1.9-4.9,2.9-7.4c2.3-5.9,5-12.5,8-20c3.9,9,7.4,17,10.5,24.2c1.3,3,2.6,6,3.9,9s2.4,5.6,3.5,7.9c1,2.3,1.8,4.2,2.5,5.7&#10;&#9;&#9;C365.2,219.1,365.6,219.9,365.7,220.1z M350.8,200.3l-8-19.3l-7.7,19.3H350.8z" id="el_ryHFJS8tTX"/>
	<path d="M412.5,219.7c1.1,0.9,2.3,1.6,3.8,2.3c1.5,0.7,2.7,1,3.8,1v0.6h-19.7V223c1,0,1.9-0.1,2.6-0.4s1.3-0.9,1.5-1.9&#10;&#9;&#9;c0.1-0.5,0-1.1-0.3-1.7s-0.6-1.3-1-2c-0.5-0.8-1.1-1.6-1.7-2.4l-13.1-16.8l-2,2v9.1c0,0.8,0,1.6,0,2.6c0,1,0,2,0,3c0,1,0.2,2,0.3,3&#10;&#9;&#9;c0.2,1,0.4,1.8,0.8,2.5c0.4,0.9,1.1,1.6,2,2.1c0.9,0.6,1.9,0.8,3,0.8v0.6h-18.1V223c1,0,2.1-0.3,3.2-0.8c1.1-0.6,1.9-1.3,2.3-2.1&#10;&#9;&#9;c0.4-0.7,0.7-1.5,0.8-2.4c0.2-0.9,0.3-1.8,0.3-2.8c0-1,0-2,0-3s0-2,0-3V188c0-0.8,0-1.6,0-2.6c0-1,0-2,0-3.1c0-1.1-0.2-2.1-0.3-3&#10;&#9;&#9;c-0.2-1-0.4-1.8-0.8-2.4c-0.4-0.9-1.3-1.6-2.5-2.1c-1.2-0.5-2.4-0.8-3.4-0.8v-0.7h18v0.7c-1.1,0-2,0.3-2.7,0.8&#10;&#9;&#9;c-0.7,0.5-1.3,1.2-1.8,2.1c-0.4,0.7-0.7,1.5-0.8,2.4c-0.2,0.9-0.3,1.8-0.3,2.8c0,1-0.1,1.9,0,3c0,1,0,2,0,3v9.3l15.8-17.2&#10;&#9;&#9;c0.3-0.3,0.6-0.7,0.8-1.1c0.2-0.3,0.3-0.7,0.4-1c0.1-0.4,0.1-0.7,0-1.1c-0.2-0.9-0.8-1.6-1.7-2.1c-0.9-0.5-1.8-0.8-2.9-0.8v-0.7&#10;&#9;&#9;h16.8v0.7c-1.1,0-2.2,0.3-3.4,0.8c-1.2,0.6-2.2,1.2-2.9,1.8c-0.4,0.3-0.8,0.7-1.3,1.2c-0.5,0.4-0.9,0.9-1.3,1.3l-1.6,1.6L392.1,194&#10;&#9;&#9;l16.1,20.6c0.5,0.8,1.1,1.5,1.6,2.2c0.4,0.6,0.9,1.1,1.4,1.7C411.7,219,412.1,219.4,412.5,219.7z" id="el_rk8tkHLtT7"/>
	<path d="M442.2,223.7H422V223c0.5,0,1.1-0.1,1.7-0.2c0.6-0.1,1.2-0.3,1.8-0.6c0.6-0.2,1.1-0.5,1.6-0.9c0.5-0.4,0.8-0.8,1.1-1.2&#10;&#9;&#9;c0.3-0.7,0.6-1.5,0.8-2.3s0.3-1.8,0.3-2.8c0-1,0.1-2,0.1-3.1c0-1,0-2,0-2.9V188c0-0.8,0-1.7,0-2.7c0-1,0-2,0-3.1c0-1-0.2-2-0.3-3&#10;&#9;&#9;c-0.2-1-0.4-1.8-0.8-2.5c-0.4-0.8-1.1-1.5-1.9-2.1c-0.8-0.6-1.8-0.8-2.8-0.8v-0.6h17.1v0.6c-1,0-1.9,0.3-2.8,0.8&#10;&#9;&#9;c-0.8,0.6-1.5,1.2-1.9,2.1c-0.8,1.5-1.1,3.2-1.1,5.2c0,2,0,4,0,6v20.9c0,0.8,0,1.6,0,2.6c0,1,0,2,0,3c0,1,0.2,2,0.3,3&#10;&#9;&#9;c0.2,1,0.4,1.8,0.8,2.5c0.2,0.4,0.5,0.8,1,1.2c0.5,0.4,1.1,0.7,1.7,0.9c0.6,0.2,1.2,0.4,1.8,0.6c0.6,0.1,1.2,0.2,1.7,0.2V223.7z" id="el_SyDFJH8tTX"/>
</g>
<g id="el_Bk_K1SUYaQ">
	<path d="M168.3,214.2c1.7,2.4,3.1,4.2,4.2,5.4c1.1,1.2,2,2.1,2.8,2.6c0.7,0.5,1.4,0.8,1.8,0.8c0.5,0,1,0,1.5,0v0.6h-10.5l-18-24.6&#10;&#9;&#9;c-0.2,0-0.4,0.1-0.5,0.1s-0.3,0-0.5,0v9.8c0,0.7,0,1.6,0,2.6c0,1,0,2,0,3c0,1,0.1,2,0.3,3c0.1,1,0.4,1.8,0.8,2.6&#10;&#9;&#9;c0.2,0.4,0.5,0.8,1,1.2c0.5,0.4,1,0.7,1.6,0.9c0.6,0.3,1.2,0.5,1.8,0.6c0.6,0.1,1.2,0.2,1.7,0.2v0.6h-18.7V223c1.1,0,2.1-0.3,3-0.8&#10;&#9;&#9;c1-0.6,1.7-1.3,2.1-2.1c0.4-0.7,0.7-1.5,0.8-2.4c0.2-0.9,0.3-1.8,0.3-2.8c0-1,0.1-2,0-3c0-1,0-2,0-3v-20.8c0-0.8,0-1.7,0.1-2.7&#10;&#9;&#9;s0-2,0-3c0-1-0.2-2-0.3-2.9c-0.2-1-0.5-1.8-0.9-2.7c-0.4-0.9-1.3-1.6-2.5-2.1c-1.2-0.5-2.3-0.8-3.3-0.8v-0.7h17.6&#10;&#9;&#9;c1.4,0,3.1,0.2,4.9,0.5c1.8,0.4,3.6,1,5.3,2c1.7,1,3,2.3,4.2,4s1.7,3.8,1.7,6.4c0,1.8-0.4,3.4-1.2,4.8c-0.8,1.4-1.8,2.5-3.1,3.5&#10;&#9;&#9;c-1.3,1-2.7,1.8-4.4,2.4s-3.3,1.1-5.1,1.4L168.3,214.2L168.3,214.2z M149.1,198c0.7,0,1.5,0,2.6-0.1c1-0.1,2.1-0.2,3.3-0.5&#10;&#9;&#9;c1.2-0.3,2.4-0.6,3.5-1.1c1.2-0.5,2.2-1.1,3.1-1.9c0.9-0.8,1.7-1.8,2.3-2.9c0.6-1.2,0.9-2.5,0.9-4.2v-1.1c0-1.9-0.3-3.6-1-4.9&#10;&#9;&#9;c-0.7-1.3-1.5-2.4-2.5-3.3s-2.2-1.5-3.4-1.9c-1.2-0.5-2.4-0.8-3.6-1c-1.2-0.2-2.2-0.3-3.1-0.4c-0.9,0-1.6,0-2.1,0V198z" id="el_HJFtJH8FT7"/>
	<path d="M225.5,173.3v0.6c-1,0-2,0.3-2.8,0.8c-0.9,0.5-1.5,1.2-2,2.1c-0.4,0.7-0.6,1.5-0.8,2.4c-0.1,0.9-0.2,1.8-0.3,2.8&#10;&#9;&#9;c0,1-0.1,1.9,0,3c0,1,0,2,0,3v20.3c0,2.2-0.5,4.3-1.4,6.2c-0.9,1.9-2.2,3.6-3.7,5c-1.6,1.4-3.4,2.6-5.6,3.4&#10;&#9;&#9;c-2.1,0.8-4.4,1.3-6.8,1.3c-2.4,0-4.7-0.4-6.8-1.3c-2.1-0.8-4-2-5.5-3.4c-1.6-1.4-2.8-3.1-3.7-5c-0.9-1.9-1.4-4-1.4-6.2V188&#10;&#9;&#9;c0-0.8,0-1.7,0-2.7c0-1,0-2,0-3c0-1-0.2-2-0.3-3c-0.2-1-0.4-1.8-0.8-2.5c-0.4-0.9-1.1-1.6-2.1-2.1s-1.9-0.8-3-0.8v-0.6h18.1v0.6&#10;&#9;&#9;c-1.1,0-2,0.3-2.9,0.8c-0.9,0.5-1.5,1.2-2,2.1c-0.4,0.7-0.7,1.5-0.8,2.4c-0.2,0.9-0.3,1.8-0.3,2.8c0,1-0.1,1.9,0,3s0,2,0,3v20.3&#10;&#9;&#9;c0,1.8,0.3,3.5,1,5.1c0.7,1.6,1.6,2.9,2.8,4.1s2.6,2.1,4.2,2.8c1.6,0.7,3.3,1,5.1,1c1.8,0,3.5-0.3,5.1-1c1.6-0.7,3-1.6,4.2-2.8&#10;&#9;&#9;c1.2-1.2,2.1-2.6,2.8-4.1c0.7-1.6,1-3.3,1-5.1V188c0-0.8,0-1.6,0-2.6c0-1,0-2,0-3.1c0-1.1-0.2-2.1-0.3-3c-0.2-1-0.4-1.8-0.8-2.4&#10;&#9;&#9;c-0.4-0.9-1.2-1.6-2.2-2.1s-2.1-0.8-3.1-0.8v-0.6H225.5z" id="el_Hk5KySIYTm"/>
	<path d="M275.8,220.1c0.4,0.9,1.2,1.6,2.3,2.1c1.1,0.5,2.2,0.8,3.2,0.8v0.7h-18.1V223c1.1,0,2.1-0.2,3.2-0.7s1.7-1.2,1.8-2.2&#10;&#9;&#9;c0-0.4-0.1-1.1-0.4-2.1c-0.3-1-0.8-2.3-1.4-3.8c-0.6-1.5-1.3-3.3-2.1-5.3c-0.8-2-1.7-4.1-2.6-6.4h-17.4l-4.5,11.5&#10;&#9;&#9;c-0.6,1.6-0.9,3-0.9,4c0,1,0.3,1.9,0.6,2.7c0.4,0.9,1.2,1.5,2.3,1.8c1.1,0.3,2.2,0.5,3.2,0.5v0.7H227V223c1.6,0,2.9-0.4,3.9-1.2&#10;&#9;&#9;c1-0.8,1.9-1.6,2.8-2.4c0.9-0.9,1.7-2.1,2.5-3.6c0.8-1.5,1.5-3.1,2.1-4.6c0.9-2.4,1.8-4.5,2.5-6.4c0.8-1.9,1.6-4.1,2.6-6.5&#10;&#9;&#9;c0.9-2.4,1.9-4.9,2.9-7.4c2.3-5.9,5-12.5,8-20c3.9,9,7.4,17,10.5,24.2c1.3,3,2.6,6,3.9,9s2.4,5.6,3.5,7.9c1,2.3,1.8,4.2,2.5,5.7&#10;&#9;&#9;C275.3,219.1,275.7,219.9,275.8,220.1z M260.9,200.3l-8-19.3l-7.7,19.3H260.9z" id="el_HyjKkSIYTQ"/>
	<path d="M317.2,188.4c0,3.3-0.7,6-2,7.9c-1.3,2-3,3.5-5.1,4.5c-2,1.1-4.3,1.8-6.7,2.1c-2.4,0.3-4.6,0.5-6.7,0.5v5.5&#10;&#9;&#9;c0,0.7,0,1.6,0,2.6c0,1,0,2,0,3.1c0,1.1,0.2,2.1,0.3,3.1c0.2,1,0.4,1.8,0.8,2.5c0.2,0.4,0.6,0.8,1.1,1.2c0.5,0.3,1.1,0.6,1.7,0.9&#10;&#9;&#9;c0.6,0.3,1.3,0.5,1.9,0.6c0.6,0.1,1.2,0.2,1.8,0.2v0.6h-19.5V223c1,0,2.1-0.3,3.2-0.8c1.1-0.6,1.9-1.2,2.3-2.1&#10;&#9;&#9;c0.4-0.7,0.6-1.5,0.8-2.4c0.1-0.9,0.2-1.8,0.3-2.8c0-1,0.1-1.9,0-3c0-1,0-2,0-3v-20.9c0-0.8,0-1.6,0-2.6c0-1,0-2,0-3&#10;&#9;&#9;c0-1-0.2-2-0.3-3c-0.2-1-0.4-1.8-0.8-2.6c-0.4-0.9-1.3-1.6-2.5-2.1c-1.2-0.5-2.4-0.8-3.4-0.8v-0.7h16.9c0.3,0,1,0,1.9,0.1&#10;&#9;&#9;s2,0.3,3.2,0.6c1.2,0.3,2.4,0.8,3.7,1.4c1.3,0.6,2.4,1.5,3.5,2.6c1.1,1.1,1.9,2.5,2.6,4.2C316.8,184,317.2,186,317.2,188.4z&#10;&#9;&#9; M312,189.6c0-2.3-0.4-4.4-1.1-6.2s-1.8-3.4-3.1-4.8s-2.9-2.3-4.8-3c-1.9-0.7-4-1-6.3-1v27.1c0.6,0,1.4-0.1,2.4-0.2&#10;&#9;&#9;c1-0.1,2-0.3,3.2-0.6c1.1-0.3,2.3-0.7,3.4-1.3c1.2-0.5,2.2-1.2,3.1-2.2c0.9-0.9,1.7-2,2.3-3.3C311.7,192.9,312,191.4,312,189.6z" id="el_Hk2YkBLK67"/>
	<path d="M358.2,213l-1.1,10.7h-34.8V223c1,0,2.1-0.3,3.2-0.8c1.1-0.5,1.9-1.2,2.3-2.1c0.3-0.7,0.6-1.5,0.8-2.3s0.3-1.8,0.3-2.8&#10;&#9;&#9;c0-1,0.1-2,0.1-3.1c0-1,0-2,0-2.9v-19.8c0-1.8,0-3.7-0.1-5.7c-0.1-2-0.6-3.8-1.6-5.6c-0.3-0.5-0.7-1-1.2-1.5&#10;&#9;&#9;c-0.5-0.5-1.1-0.9-1.8-1.3c-0.6-0.4-1.3-0.6-1.9-0.8c-0.6-0.2-1.2-0.3-1.8-0.3v-0.6h33.8l0.4,8.2H354c-0.1-2.2-0.9-3.8-2.4-4.9&#10;&#9;&#9;c-0.4-0.2-1.1-0.4-2.1-0.6c-1-0.1-2.1-0.3-3.3-0.3c-1.2-0.1-2.3-0.1-3.4-0.2c-1.1,0-1.9-0.1-2.5-0.1l-6-0.2v21.7h2.2&#10;&#9;&#9;c2,0,4-0.1,6-0.2c0.9,0,1.8-0.1,2.7-0.2c0.9-0.1,1.8-0.3,2.6-0.7c0.4-0.2,0.8-0.6,1.2-1.2c0.4-0.6,0.7-1.2,1.1-1.9&#10;&#9;&#9;c0.3-0.7,0.6-1.4,0.8-2.1c0.2-0.7,0.3-1.3,0.3-1.8h0.7l-0.5,5.8c-0.2,2.3-0.2,4.7,0,7.1l0.5,5.8h-0.7c0-0.5-0.1-1.2-0.3-1.9&#10;&#9;&#9;c-0.2-0.7-0.5-1.4-0.8-2.2c-0.3-0.7-0.7-1.4-1.1-1.9c-0.4-0.6-0.8-0.9-1.2-1.2c-0.8-0.4-1.7-0.6-2.6-0.7c-0.9-0.1-1.8-0.2-2.7-0.3&#10;&#9;&#9;c-1-0.1-2-0.1-3-0.1c-1,0-2,0-3,0h-2.2v16.5c0,2.3,0.5,4,1.6,5c1.1,1,2.3,1.5,3.8,1.5h3.1c0.8,0,1.6,0,2.5,0s1.5,0,2-0.1&#10;&#9;&#9;c1.2,0,2.1-0.1,2.8-0.1c0.7,0,1.2-0.1,1.7-0.3c0.4-0.1,0.8-0.3,1.2-0.6c0.4-0.3,0.8-0.6,1.3-1c1.1-1,1.9-2.1,2.4-3.4&#10;&#9;&#9;s0.8-2.5,0.8-3.6H358.2z" id="el_rJaK1BUYaQ"/>
	<path d="M408.4,176.8c-0.7,1.5-1.1,3.3-1,5.3c0,2,0,4,0,6v20.9c0,0.7,0,1.6,0,2.6c0,1,0,2,0,3c0,1,0.1,2,0.3,3&#10;&#9;&#9;c0.1,1,0.4,1.8,0.8,2.6c0.5,0.9,1.3,1.6,2.4,2.1c1.1,0.5,2.2,0.8,3.2,0.8v0.7h-18.1V223c1,0,2-0.3,2.9-0.8c0.9-0.5,1.6-1.2,2.1-2.1&#10;&#9;&#9;c0.4-0.7,0.6-1.5,0.8-2.4c0.1-0.9,0.2-1.8,0.3-2.8c0-1,0.1-1.9,0-3s0-2,0-3v-9.9h-25.9v9.9c0,0.7,0,1.6,0,2.6c0,1,0,2,0,3&#10;&#9;&#9;c0,1,0.1,2,0.3,3c0.1,1,0.4,1.8,0.8,2.6c0.4,0.9,1.1,1.6,2.1,2.1c0.9,0.5,1.9,0.8,2.9,0.8v0.7H364V223c1.1,0,2.1-0.3,3.2-0.8&#10;&#9;&#9;c1.1-0.5,1.9-1.2,2.4-2.1c0.4-0.7,0.6-1.5,0.8-2.4c0.1-0.9,0.2-1.8,0.3-2.8c0-1,0.1-1.9,0-3s0-2,0-3V188c0-0.8,0-1.7,0-2.7&#10;&#9;&#9;c0-1,0-2,0-3c0-1-0.2-2-0.3-3c-0.2-1-0.4-1.8-0.8-2.6c-0.5-0.8-1.3-1.5-2.6-2.1c-1.2-0.6-2.3-0.8-3.3-0.8v-0.6h17.9v0.6&#10;&#9;&#9;c-1,0-1.9,0.3-2.7,0.8c-0.8,0.6-1.4,1.2-1.8,2.1c-0.7,1.5-1.1,3.3-1,5.3c0,2,0,4,0,6v8.9H402V188c0-0.9,0-1.8,0-2.7&#10;&#9;&#9;c0-1,0-1.9,0-2.9c0-1-0.1-2-0.3-2.9c-0.2-1-0.4-1.8-0.8-2.7c-0.4-0.8-1-1.5-1.8-2.1c-0.8-0.6-1.7-0.8-2.7-0.8v-0.6h17.9v0.6&#10;&#9;&#9;c-1.1,0-2.2,0.3-3.4,0.8C409.7,175.3,408.9,176,408.4,176.8z" id="el_SyAKJH8tTQ"/>
	<path d="M464.6,173.3v0.6c-1,0-2,0.3-2.8,0.8c-0.9,0.5-1.5,1.2-2,2.1c-0.4,0.7-0.6,1.5-0.8,2.4c-0.1,0.9-0.2,1.8-0.3,2.8&#10;&#9;&#9;c0,1-0.1,1.9,0,3c0,1,0,2,0,3v20.3c0,2.2-0.5,4.3-1.4,6.2c-0.9,1.9-2.2,3.6-3.7,5c-1.6,1.4-3.4,2.6-5.6,3.4&#10;&#9;&#9;c-2.1,0.8-4.4,1.3-6.8,1.3c-2.4,0-4.7-0.4-6.8-1.3c-2.1-0.8-4-2-5.5-3.4c-1.6-1.4-2.8-3.1-3.7-5c-0.9-1.9-1.4-4-1.4-6.2V188&#10;&#9;&#9;c0-0.8,0-1.7,0-2.7s0-2,0-3c0-1-0.2-2-0.3-3c-0.2-1-0.4-1.8-0.8-2.5c-0.4-0.9-1.1-1.6-2.1-2.1c-0.9-0.5-1.9-0.8-3-0.8v-0.6h18.1&#10;&#9;&#9;v0.6c-1.1,0-2,0.3-2.9,0.8c-0.9,0.5-1.5,1.2-2,2.1c-0.4,0.7-0.7,1.5-0.8,2.4c-0.2,0.9-0.3,1.8-0.3,2.8c0,1-0.1,1.9,0,3c0,1,0,2,0,3&#10;&#9;&#9;v20.3c0,1.8,0.3,3.5,1,5.1c0.7,1.6,1.6,2.9,2.8,4.1c1.2,1.2,2.6,2.1,4.2,2.8c1.6,0.7,3.3,1,5.1,1c1.8,0,3.5-0.3,5.1-1&#10;&#9;&#9;c1.6-0.7,3-1.6,4.2-2.8s2.1-2.6,2.8-4.1c0.7-1.6,1-3.3,1-5.1V188c0-0.8,0-1.6,0-2.6c0-1,0-2,0-3.1c0-1.1-0.2-2.1-0.3-3&#10;&#9;&#9;c-0.2-1-0.4-1.8-0.8-2.4c-0.4-0.9-1.2-1.6-2.2-2.1c-1-0.5-2.1-0.8-3.1-0.8v-0.6H464.6z" id="el_rkJltkBItaX"/>
</g>
<g id="el_S1llFJSLFpX">
	<path d="M206.9,220.1c0.4,0.9,1.2,1.6,2.3,2.1c1.1,0.5,2.2,0.8,3.2,0.8v0.7h-18.1V223c1.1,0,2.1-0.2,3.2-0.7s1.7-1.2,1.8-2.2&#10;&#9;&#9;c0-0.4-0.1-1.1-0.4-2.1c-0.3-1-0.8-2.3-1.4-3.8c-0.6-1.5-1.3-3.3-2.1-5.3c-0.8-2-1.7-4.1-2.6-6.4h-17.4L171,214&#10;&#9;&#9;c-0.6,1.6-0.9,3-0.9,4c0,1,0.3,1.9,0.6,2.7c0.4,0.9,1.2,1.5,2.3,1.8c1.1,0.3,2.2,0.5,3.2,0.5v0.7h-18.1V223c1.6,0,2.9-0.4,3.9-1.2&#10;&#9;&#9;c1-0.8,1.9-1.6,2.8-2.4c0.9-0.9,1.7-2.1,2.5-3.6c0.8-1.5,1.5-3.1,2.1-4.6c0.9-2.4,1.8-4.5,2.5-6.4c0.8-1.9,1.6-4.1,2.6-6.5&#10;&#9;&#9;c0.9-2.4,1.9-4.9,2.9-7.4c2.3-5.9,5-12.5,8-20c3.9,9,7.4,17,10.5,24.2c1.3,3,2.6,6,3.9,9s2.4,5.6,3.5,7.9c1,2.3,1.8,4.2,2.5,5.7&#10;&#9;&#9;C206.5,219.1,206.8,219.9,206.9,220.1z M192,200.3l-8-19.3l-7.7,19.3H192z" id="el_ByZxFkHUFT7"/>
	<path d="M242.1,171.9c3.5,0,6.8,0.7,9.9,2.1s5.8,3.3,8.1,5.7c2.3,2.4,4.1,5.2,5.4,8.5c1.3,3.2,2,6.7,2,10.3c0,3.7-0.7,7.2-2,10.4&#10;&#9;&#9;c-1.3,3.2-3.1,6-5.4,8.4c-2.3,2.4-5,4.3-8.1,5.7c-3.1,1.4-6.4,2.1-9.9,2.1s-6.8-0.7-9.9-2.1c-3.1-1.4-5.8-3.3-8.1-5.7&#10;&#9;&#9;c-2.3-2.4-4.1-5.2-5.4-8.4c-1.3-3.2-2-6.7-2-10.4c0-3.6,0.7-7.1,2-10.3c1.3-3.2,3.1-6.1,5.4-8.5c2.3-2.4,5-4.3,8.1-5.7&#10;&#9;&#9;S238.6,171.9,242.1,171.9z M242.1,223.1c2.6,0,5-0.6,7.3-1.9c2.3-1.3,4.3-3.1,6-5.3c1.7-2.2,3.1-4.8,4.1-7.8c1-3,1.5-6.2,1.5-9.6&#10;&#9;&#9;c0-3.4-0.5-6.6-1.5-9.6c-1-3-2.3-5.6-4.1-7.8c-1.7-2.2-3.7-4-6-5.3c-2.3-1.3-4.8-1.9-7.3-1.9c-2.6,0-5,0.6-7.3,1.9s-4.3,3.1-6,5.3&#10;&#9;&#9;c-1.7,2.2-3.1,4.8-4.1,7.8c-1,3-1.5,6.2-1.5,9.6c0,3.4,0.5,6.6,1.5,9.6c1,3,2.3,5.6,4.1,7.8c1.7,2.2,3.7,4,6,5.3&#10;&#9;&#9;C237,222.5,239.5,223.1,242.1,223.1z" id="el_B1feFJHItp7"/>
	<path d="M303.7,214.2c1.7,2.4,3.1,4.2,4.2,5.4c1.1,1.2,2,2.1,2.8,2.6c0.7,0.5,1.4,0.8,1.8,0.8c0.5,0,1,0,1.5,0v0.6h-10.5l-18-24.6&#10;&#9;&#9;c-0.2,0-0.4,0.1-0.5,0.1s-0.3,0-0.5,0v9.8c0,0.7,0,1.6,0,2.6c0,1,0,2,0,3c0,1,0.1,2,0.3,3c0.1,1,0.4,1.8,0.8,2.6&#10;&#9;&#9;c0.2,0.4,0.5,0.8,1,1.2c0.5,0.4,1,0.7,1.6,0.9c0.6,0.3,1.2,0.5,1.8,0.6c0.6,0.1,1.2,0.2,1.7,0.2v0.6H273V223c1.1,0,2.1-0.3,3-0.8&#10;&#9;&#9;c1-0.6,1.7-1.3,2.1-2.1c0.4-0.7,0.7-1.5,0.8-2.4c0.2-0.9,0.3-1.8,0.3-2.8c0-1,0.1-2,0-3c0-1,0-2,0-3v-20.8c0-0.8,0-1.7,0.1-2.7&#10;&#9;&#9;s0-2,0-3c0-1-0.2-2-0.3-2.9c-0.2-1-0.5-1.8-0.9-2.7c-0.4-0.9-1.3-1.6-2.5-2.1c-1.2-0.5-2.3-0.8-3.3-0.8v-0.7h17.6&#10;&#9;&#9;c1.4,0,3.1,0.2,4.9,0.5c1.8,0.4,3.6,1,5.3,2c1.7,1,3,2.3,4.2,4s1.7,3.8,1.7,6.4c0,1.8-0.4,3.4-1.2,4.8c-0.8,1.4-1.8,2.5-3.1,3.5&#10;&#9;&#9;c-1.3,1-2.7,1.8-4.4,2.4s-3.3,1.1-5.1,1.4L303.7,214.2L303.7,214.2z M284.6,198c0.7,0,1.5,0,2.6-0.1c1-0.1,2.1-0.2,3.3-0.5&#10;&#9;&#9;c1.2-0.3,2.4-0.6,3.5-1.1c1.2-0.5,2.2-1.1,3.1-1.9c0.9-0.8,1.7-1.8,2.3-2.9c0.6-1.2,0.9-2.5,0.9-4.2v-1.1c0-1.9-0.3-3.6-1-4.9&#10;&#9;&#9;c-0.7-1.3-1.5-2.4-2.5-3.3s-2.2-1.5-3.4-1.9c-1.2-0.5-2.4-0.8-3.6-1c-1.2-0.2-2.2-0.3-3.1-0.4c-0.9,0-1.6,0-2.1,0V198z" id="el_BJQltkBLtTQ"/>
	<path d="M361.9,220.1c0.4,0.9,1.2,1.6,2.3,2.1c1.1,0.5,2.2,0.8,3.2,0.8v0.7h-18.1V223c1.1,0,2.1-0.2,3.2-0.7s1.7-1.2,1.8-2.2&#10;&#9;&#9;c0-0.4-0.1-1.1-0.4-2.1c-0.3-1-0.8-2.3-1.4-3.8c-0.6-1.5-1.3-3.3-2.1-5.3c-0.8-2-1.7-4.1-2.6-6.4h-17.4L326,214&#10;&#9;&#9;c-0.6,1.6-0.9,3-0.9,4c0,1,0.3,1.9,0.6,2.7c0.4,0.9,1.2,1.5,2.3,1.8c1.1,0.3,2.2,0.5,3.2,0.5v0.7h-18.1V223c1.6,0,2.9-0.4,3.9-1.2&#10;&#9;&#9;c1-0.8,1.9-1.6,2.8-2.4c0.9-0.9,1.7-2.1,2.5-3.6c0.8-1.5,1.5-3.1,2.1-4.6c0.9-2.4,1.8-4.5,2.5-6.4c0.8-1.9,1.6-4.1,2.6-6.5&#10;&#9;&#9;c0.9-2.4,1.9-4.9,2.9-7.4c2.3-5.9,5-12.5,8-20c3.9,9,7.4,17,10.5,24.2c1.3,3,2.6,6,3.9,9s2.4,5.6,3.5,7.9c1,2.3,1.8,4.2,2.5,5.7&#10;&#9;&#9;C361.4,219.1,361.8,219.9,361.9,220.1z M347,200.3l-8-19.3l-7.7,19.3H347z" id="el_SJNgt1HUKp7"/>
	<path d="M408.7,219.7c1.1,0.9,2.3,1.6,3.8,2.3c1.5,0.7,2.7,1,3.8,1v0.6h-19.7V223c1,0,1.9-0.1,2.6-0.4c0.7-0.3,1.3-0.9,1.5-1.9&#10;&#9;&#9;c0.1-0.5,0-1.1-0.3-1.7s-0.6-1.3-1-2c-0.5-0.8-1.1-1.6-1.7-2.4l-13.1-16.8l-2,2v9.1c0,0.8,0,1.6,0,2.6c0,1,0,2,0,3s0.2,2,0.3,3&#10;&#9;&#9;c0.2,1,0.4,1.8,0.8,2.5c0.4,0.9,1.1,1.6,2,2.1c0.9,0.6,1.9,0.8,3,0.8v0.6h-18.1V223c1,0,2.1-0.3,3.2-0.8c1.1-0.6,1.9-1.3,2.3-2.1&#10;&#9;&#9;c0.4-0.7,0.7-1.5,0.8-2.4c0.2-0.9,0.3-1.8,0.3-2.8c0-1,0-2,0-3s0-2,0-3V188c0-0.8,0-1.6,0-2.6s0-2,0-3.1c0-1.1-0.2-2.1-0.3-3&#10;&#9;&#9;c-0.2-1-0.4-1.8-0.8-2.4c-0.4-0.9-1.3-1.6-2.5-2.1c-1.2-0.5-2.4-0.8-3.4-0.8v-0.7h18v0.7c-1.1,0-2,0.3-2.7,0.8&#10;&#9;&#9;c-0.7,0.5-1.3,1.2-1.8,2.1c-0.4,0.7-0.7,1.5-0.8,2.4c-0.2,0.9-0.3,1.8-0.3,2.8c0,1-0.1,1.9,0,3s0,2,0,3v9.3l15.8-17.2&#10;&#9;&#9;c0.3-0.3,0.6-0.7,0.8-1.1c0.2-0.3,0.3-0.7,0.4-1c0.1-0.4,0.1-0.7,0-1.1c-0.2-0.9-0.8-1.6-1.7-2.1c-0.9-0.5-1.8-0.8-2.9-0.8v-0.7&#10;&#9;&#9;h16.8v0.7c-1.1,0-2.2,0.3-3.4,0.8c-1.2,0.6-2.2,1.2-2.9,1.8c-0.4,0.3-0.8,0.7-1.3,1.2c-0.5,0.4-0.9,0.9-1.3,1.3l-1.6,1.6L388.3,194&#10;&#9;&#9;l16.1,20.6c0.5,0.8,1.1,1.5,1.6,2.2c0.4,0.6,0.9,1.1,1.4,1.7C407.9,219,408.3,219.4,408.7,219.7z" id="el_rJHxF1r8K6m"/>
	<path d="M438.3,223.7h-20.2V223c0.5,0,1.1-0.1,1.7-0.2c0.6-0.1,1.2-0.3,1.8-0.6c0.6-0.2,1.1-0.5,1.6-0.9c0.5-0.4,0.8-0.8,1.1-1.2&#10;&#9;&#9;c0.3-0.7,0.6-1.5,0.8-2.3s0.3-1.8,0.3-2.8c0-1,0.1-2,0.1-3.1c0-1,0-2,0-2.9V188c0-0.8,0-1.7,0-2.7c0-1,0-2,0-3.1c0-1-0.2-2-0.3-3&#10;&#9;&#9;c-0.2-1-0.4-1.8-0.8-2.5c-0.4-0.8-1.1-1.5-1.9-2.1c-0.8-0.6-1.8-0.8-2.8-0.8v-0.6h17.1v0.6c-1,0-1.9,0.3-2.8,0.8&#10;&#9;&#9;c-0.8,0.6-1.5,1.2-1.9,2.1c-0.8,1.5-1.1,3.2-1.1,5.2c0,2,0,4,0,6v20.9c0,0.8,0,1.6,0,2.6c0,1,0,2,0,3c0,1,0.2,2,0.3,3&#10;&#9;&#9;c0.2,1,0.4,1.8,0.8,2.5c0.2,0.4,0.5,0.8,1,1.2c0.5,0.4,1.1,0.7,1.7,0.9c0.6,0.2,1.2,0.4,1.8,0.6c0.6,0.1,1.2,0.2,1.7,0.2V223.7z" id="el_SkLlYkrUK67"/>
</g>
<g id="el_BJwgt1rLYTQ">
	<path d="M177.9,171.9c3.5,0,6.8,0.7,9.9,2.1s5.8,3.3,8.1,5.7c2.3,2.4,4.1,5.2,5.4,8.5c1.3,3.2,2,6.7,2,10.3c0,3.7-0.7,7.2-2,10.4&#10;&#9;&#9;c-1.3,3.2-3.1,6-5.4,8.4c-2.3,2.4-5,4.3-8.1,5.7c-3.1,1.4-6.4,2.1-9.9,2.1s-6.8-0.7-9.9-2.1c-3.1-1.4-5.8-3.3-8.1-5.7&#10;&#9;&#9;c-2.3-2.4-4.1-5.2-5.4-8.4c-1.3-3.2-2-6.7-2-10.4c0-3.6,0.7-7.1,2-10.3c1.3-3.2,3.1-6.1,5.4-8.5c2.3-2.4,5-4.3,8.1-5.7&#10;&#9;&#9;S174.4,171.9,177.9,171.9z M177.9,223.1c2.6,0,5-0.6,7.3-1.9c2.3-1.3,4.3-3.1,6-5.3c1.7-2.2,3.1-4.8,4.1-7.8c1-3,1.5-6.2,1.5-9.6&#10;&#9;&#9;c0-3.4-0.5-6.6-1.5-9.6c-1-3-2.3-5.6-4.1-7.8c-1.7-2.2-3.7-4-6-5.3c-2.3-1.3-4.8-1.9-7.3-1.9c-2.6,0-5,0.6-7.3,1.9s-4.3,3.1-6,5.3&#10;&#9;&#9;c-1.7,2.2-3.1,4.8-4.1,7.8c-1,3-1.5,6.2-1.5,9.6c0,3.4,0.5,6.6,1.5,9.6c1,3,2.3,5.6,4.1,7.8c1.7,2.2,3.7,4,6,5.3&#10;&#9;&#9;C172.9,222.5,175.3,223.1,177.9,223.1z M186.1,166.6h-17v-2.4h17V166.6z" id="el_Hyult1B8Y6Q"/>
	<path d="M243.1,188.4c0,3.3-0.7,6-2,7.9c-1.3,2-3,3.5-5.1,4.5c-2,1.1-4.3,1.8-6.7,2.1c-2.4,0.3-4.6,0.5-6.7,0.5v5.5&#10;&#9;&#9;c0,0.7,0,1.6,0,2.6c0,1,0,2,0,3.1c0,1.1,0.2,2.1,0.3,3.1c0.2,1,0.4,1.8,0.8,2.5c0.2,0.4,0.6,0.8,1.1,1.2c0.5,0.3,1.1,0.6,1.7,0.9&#10;&#9;&#9;c0.6,0.3,1.3,0.5,1.9,0.6c0.6,0.1,1.2,0.2,1.8,0.2v0.6h-19.5V223c1,0,2.1-0.3,3.2-0.8c1.1-0.6,1.9-1.2,2.3-2.1&#10;&#9;&#9;c0.4-0.7,0.6-1.5,0.8-2.4c0.1-0.9,0.2-1.8,0.3-2.8c0-1,0.1-1.9,0-3c0-1,0-2,0-3v-20.9c0-0.8,0-1.6,0-2.6c0-1,0-2,0-3&#10;&#9;&#9;c0-1-0.2-2-0.3-3c-0.2-1-0.4-1.8-0.8-2.6c-0.4-0.9-1.3-1.6-2.5-2.1c-1.2-0.5-2.4-0.8-3.4-0.8v-0.7h16.9c0.3,0,1,0,1.9,0.1&#10;&#9;&#9;s2,0.3,3.2,0.6c1.2,0.3,2.4,0.8,3.7,1.4c1.3,0.6,2.4,1.5,3.5,2.6c1.1,1.1,1.9,2.5,2.6,4.2C242.7,184,243.1,186,243.1,188.4z&#10;&#9;&#9; M237.9,189.6c0-2.3-0.4-4.4-1.1-6.2s-1.8-3.4-3.1-4.8s-2.9-2.3-4.8-3c-1.9-0.7-4-1-6.3-1v27.1c0.6,0,1.4-0.1,2.4-0.2&#10;&#9;&#9;c1-0.1,2-0.3,3.2-0.6c1.1-0.3,2.3-0.7,3.4-1.3c1.2-0.5,2.2-1.2,3.1-2.2c0.9-0.9,1.7-2,2.3-3.3C237.6,192.9,237.9,191.4,237.9,189.6&#10;&#9;&#9;z" id="el_rytlKyBUKaX"/>
	<path d="M274.5,171.9c3.5,0,6.8,0.7,9.9,2.1c3.1,1.4,5.8,3.3,8.1,5.7c2.3,2.4,4.1,5.2,5.4,8.5c1.3,3.2,2,6.7,2,10.3&#10;&#9;&#9;c0,3.7-0.7,7.2-2,10.4c-1.3,3.2-3.1,6-5.4,8.4c-2.3,2.4-5,4.3-8.1,5.7c-3.1,1.4-6.4,2.1-9.9,2.1c-3.5,0-6.8-0.7-9.9-2.1&#10;&#9;&#9;c-3.1-1.4-5.8-3.3-8.1-5.7c-2.3-2.4-4.1-5.2-5.4-8.4c-1.3-3.2-2-6.7-2-10.4c0-3.6,0.7-7.1,2-10.3c1.3-3.2,3.1-6.1,5.4-8.5&#10;&#9;&#9;c2.3-2.4,5-4.3,8.1-5.7C267.7,172.6,271,171.9,274.5,171.9z M274.5,223.1c2.6,0,5-0.6,7.3-1.9c2.3-1.3,4.3-3.1,6-5.3&#10;&#9;&#9;c1.7-2.2,3.1-4.8,4.1-7.8c1-3,1.5-6.2,1.5-9.6c0-3.4-0.5-6.6-1.5-9.6c-1-3-2.3-5.6-4.1-7.8c-1.7-2.2-3.7-4-6-5.3&#10;&#9;&#9;c-2.3-1.3-4.8-1.9-7.3-1.9s-5,0.6-7.3,1.9c-2.3,1.3-4.3,3.1-6,5.3c-1.7,2.2-3.1,4.8-4.1,7.8c-1,3-1.5,6.2-1.5,9.6&#10;&#9;&#9;c0,3.4,0.5,6.6,1.5,9.6c1,3,2.3,5.6,4.1,7.8c1.7,2.2,3.7,4,6,5.3C269.4,222.5,271.9,223.1,274.5,223.1z M282.6,166.6h-17v-2.4h17&#10;&#9;&#9;V166.6z" id="el_rJ9ltkrLKpX"/>
	<path d="M347.7,173.3v9.5H347c0-1.2-0.3-2.3-0.8-3.5c-0.5-1.2-1.2-2-2.1-2.5c-0.8-0.4-1.7-0.7-2.6-0.8c-0.9-0.1-1.8-0.2-2.7-0.3&#10;&#9;&#9;c-0.5,0-1.2-0.1-2.1-0.1c-0.9,0-1.9,0-3-0.1c-1,0-2,0-3,0c-0.9,0-1.6,0-2.1,0V209c0,0.7,0,1.6,0,2.6c0,1,0,2,0,3.1&#10;&#9;&#9;c0,1.1,0.2,2.1,0.3,3.1c0.2,1,0.4,1.8,0.8,2.5c0.2,0.4,0.5,0.8,1,1.2c0.5,0.4,1,0.7,1.6,0.9c0.6,0.3,1.2,0.5,1.8,0.6&#10;&#9;&#9;c0.6,0.1,1.2,0.2,1.7,0.2v0.6h-20.1v-0.6c0.5,0,1-0.1,1.7-0.2s1.2-0.3,1.8-0.6c0.6-0.3,1.1-0.6,1.6-0.9c0.5-0.4,0.8-0.8,1.1-1.2&#10;&#9;&#9;c0.4-0.7,0.6-1.5,0.8-2.4c0.1-0.9,0.2-1.8,0.3-2.8s0.1-1.9,0-3c0-1,0-2,0-3v-33.4c-0.5,0-1.2,0-2.1,0c-0.9,0-1.9,0-3,0&#10;&#9;&#9;c-1,0-2,0-3,0.1c-0.9,0-1.6,0.1-2.1,0.1c-0.9,0.1-1.8,0.2-2.7,0.3c-0.9,0.1-1.7,0.3-2.6,0.8c-0.9,0.5-1.6,1.4-2.1,2.5&#10;&#9;&#9;c-0.5,1.2-0.8,2.3-0.8,3.5H304v-9.5H347.7z" id="el_S1oxKyHLYaQ"/>
	<path d="M373.8,223.7h-20.2V223c0.5,0,1.1-0.1,1.7-0.2c0.6-0.1,1.2-0.3,1.8-0.6c0.6-0.2,1.1-0.5,1.6-0.9c0.5-0.4,0.8-0.8,1.1-1.2&#10;&#9;&#9;c0.3-0.7,0.6-1.5,0.8-2.3s0.3-1.8,0.3-2.8c0-1,0.1-2,0.1-3.1c0-1,0-2,0-2.9V188c0-0.8,0-1.7,0-2.7c0-1,0-2,0-3.1c0-1-0.2-2-0.3-3&#10;&#9;&#9;c-0.2-1-0.4-1.8-0.8-2.5c-0.4-0.8-1.1-1.5-1.9-2.1c-0.8-0.6-1.8-0.8-2.8-0.8v-0.6h17.1v0.6c-1,0-1.9,0.3-2.8,0.8&#10;&#9;&#9;c-0.8,0.6-1.5,1.2-1.9,2.1c-0.8,1.5-1.1,3.2-1.1,5.2c0,2,0,4,0,6v20.9c0,0.8,0,1.6,0,2.6c0,1,0,2,0,3c0,1,0.2,2,0.3,3&#10;&#9;&#9;c0.2,1,0.4,1.8,0.8,2.5c0.2,0.4,0.5,0.8,1,1.2c0.5,0.4,1.1,0.7,1.7,0.9c0.6,0.2,1.2,0.4,1.8,0.6c0.6,0.1,1.2,0.2,1.7,0.2V223.7z" id="el_rJheFySLFpX"/>
	<path d="M418.5,219.7c1.1,0.9,2.3,1.6,3.8,2.3c1.5,0.7,2.7,1,3.8,1v0.6h-19.7V223c1,0,1.9-0.1,2.6-0.4s1.3-0.9,1.5-1.9&#10;&#9;&#9;c0.1-0.5,0-1.1-0.3-1.7s-0.6-1.3-1-2c-0.5-0.8-1.1-1.6-1.7-2.4l-13.1-16.8l-2,2v9.1c0,0.8,0,1.6,0,2.6c0,1,0,2,0,3c0,1,0.2,2,0.3,3&#10;&#9;&#9;c0.2,1,0.4,1.8,0.8,2.5c0.4,0.9,1.1,1.6,2,2.1c0.9,0.6,1.9,0.8,3,0.8v0.6h-18.1V223c1,0,2.1-0.3,3.2-0.8c1.1-0.6,1.9-1.3,2.3-2.1&#10;&#9;&#9;c0.4-0.7,0.7-1.5,0.8-2.4c0.2-0.9,0.3-1.8,0.3-2.8c0-1,0-2,0-3s0-2,0-3V188c0-0.8,0-1.6,0-2.6c0-1,0-2,0-3.1c0-1.1-0.2-2.1-0.3-3&#10;&#9;&#9;c-0.2-1-0.4-1.8-0.8-2.4c-0.4-0.9-1.3-1.6-2.5-2.1c-1.2-0.5-2.4-0.8-3.4-0.8v-0.7h18v0.7c-1.1,0-2,0.3-2.7,0.8&#10;&#9;&#9;c-0.7,0.5-1.3,1.2-1.8,2.1c-0.4,0.7-0.7,1.5-0.8,2.4c-0.2,0.9-0.3,1.8-0.3,2.8c0,1-0.1,1.9,0,3c0,1,0,2,0,3v9.3l15.8-17.2&#10;&#9;&#9;c0.3-0.3,0.6-0.7,0.8-1.1c0.2-0.3,0.3-0.7,0.4-1c0.1-0.4,0.1-0.7,0-1.1c-0.2-0.9-0.8-1.6-1.7-2.1c-0.9-0.5-1.8-0.8-2.9-0.8v-0.7&#10;&#9;&#9;h16.8v0.7c-1.1,0-2.2,0.3-3.4,0.8c-1.2,0.6-2.2,1.2-2.9,1.8c-0.4,0.3-0.8,0.7-1.3,1.2c-0.5,0.4-0.9,0.9-1.3,1.3l-1.6,1.6L398.2,194&#10;&#9;&#9;l16.1,20.6c0.5,0.8,1.1,1.5,1.6,2.2c0.4,0.6,0.9,1.1,1.4,1.7C417.7,219,418.2,219.4,418.5,219.7z" id="el_r1pxYkS8YaQ"/>
	<path d="M448.2,223.7h-20.2V223c0.5,0,1.1-0.1,1.7-0.2c0.6-0.1,1.2-0.3,1.8-0.6c0.6-0.2,1.1-0.5,1.6-0.9c0.5-0.4,0.8-0.8,1.1-1.2&#10;&#9;&#9;c0.3-0.7,0.6-1.5,0.8-2.3s0.3-1.8,0.3-2.8c0-1,0.1-2,0.1-3.1c0-1,0-2,0-2.9V188c0-0.8,0-1.7,0-2.7c0-1,0-2,0-3.1c0-1-0.2-2-0.3-3&#10;&#9;&#9;c-0.2-1-0.4-1.8-0.8-2.5c-0.4-0.8-1.1-1.5-1.9-2.1c-0.8-0.6-1.8-0.8-2.8-0.8v-0.6h17.1v0.6c-1,0-1.9,0.3-2.8,0.8&#10;&#9;&#9;c-0.8,0.6-1.5,1.2-1.9,2.1c-0.8,1.5-1.1,3.2-1.1,5.2c0,2,0,4,0,6v20.9c0,0.8,0,1.6,0,2.6c0,1,0,2,0,3c0,1,0.2,2,0.3,3&#10;&#9;&#9;c0.2,1,0.4,1.8,0.8,2.5c0.2,0.4,0.5,0.8,1,1.2c0.5,0.4,1.1,0.7,1.7,0.9c0.6,0.2,1.2,0.4,1.8,0.6c0.6,0.1,1.2,0.2,1.7,0.2V223.7z" id="el_HyClYySIKaQ"/>
</g>
<g id="el_HyyZKyHIFTQ">
	<path d="M215,173.3v0.6c-1.1,0-2.1,0.3-3.2,0.9c-1.1,0.6-1.9,1.3-2.4,2.1c-0.3,0.4-0.7,1.1-1.1,2.1c-0.5,1-0.9,2.1-1.5,3.3&#10;&#9;&#9;c-0.5,1.2-1,2.4-1.5,3.7c-0.5,1.2-0.9,2.3-1.3,3.2l-13.2,34.5h-0.8l-15.4-40.3l-15,40.3h-0.9L145.2,189c-0.3-0.8-0.8-1.8-1.3-3.1&#10;&#9;&#9;c-0.5-1.2-1-2.4-1.5-3.6c-0.5-1.2-1-2.3-1.5-3.3c-0.5-1-0.8-1.7-1.1-2.1c-0.6-0.8-1.4-1.5-2.5-2.1s-2.1-0.9-3.1-0.9v-0.6h17.9v0.6&#10;&#9;&#9;c-1,0-1.8,0.1-2.4,0.4s-1.2,0.9-1.9,1.8c-0.3,0.5-0.4,1.2-0.3,2.2c0.1,1,0.4,2.1,0.7,3.3c0.4,1.2,0.8,2.4,1.2,3.6&#10;&#9;&#9;c0.5,1.2,0.9,2.3,1.2,3.3l10,26.2l9.7-27.1c0.6-1.6,1-2.9,1.3-3.9c0.3-1,0.5-1.9,0.6-2.6c0.1-0.7,0.1-1.4,0-1.9&#10;&#9;&#9;c-0.1-0.6-0.2-1.1-0.4-1.8c-0.4-1.2-1.2-2.1-2.3-2.7c-1.1-0.5-2.3-0.8-3.4-0.8v-0.6h16.5v0.6c-1.1,0-1.8,0.1-2.3,0.4&#10;&#9;&#9;c-0.5,0.3-1,0.8-1.5,1.6c-0.2,0.4-0.3,1.2-0.1,2.3c0.2,1.1,0.5,2.3,0.9,3.7c0.4,1.3,0.8,2.7,1.3,4c0.5,1.3,0.9,2.4,1.3,3.3&#10;&#9;&#9;l9.8,25.6l10-27.1c0.4-1.2,0.8-2.5,1.2-3.8c0.4-1.3,0.6-2.4,0.9-3.5s0.3-2,0.4-2.8c0-0.8-0.1-1.4-0.4-1.8c-0.7-0.9-1.3-1.5-2-1.6&#10;&#9;&#9;c-0.6-0.2-1.5-0.3-2.6-0.3v-0.6H215z" id="el_r1e-KkHUK6X"/>
	<path d="M251.9,220.1c0.4,0.9,1.2,1.6,2.3,2.1c1.1,0.5,2.2,0.8,3.2,0.8v0.7h-18.1V223c1.1,0,2.1-0.2,3.2-0.7s1.7-1.2,1.8-2.2&#10;&#9;&#9;c0-0.4-0.1-1.1-0.4-2.1c-0.3-1-0.8-2.3-1.4-3.8c-0.6-1.5-1.3-3.3-2.1-5.3c-0.8-2-1.7-4.1-2.6-6.4h-17.4L216,214&#10;&#9;&#9;c-0.6,1.6-0.9,3-0.9,4c0,1,0.3,1.9,0.6,2.7c0.4,0.9,1.2,1.5,2.3,1.8c1.1,0.3,2.2,0.5,3.2,0.5v0.7h-18.1V223c1.6,0,2.9-0.4,3.9-1.2&#10;&#9;&#9;c1-0.8,1.9-1.6,2.8-2.4c0.9-0.9,1.7-2.1,2.5-3.6c0.8-1.5,1.5-3.1,2.1-4.6c0.9-2.4,1.8-4.5,2.5-6.4c0.8-1.9,1.6-4.1,2.6-6.5&#10;&#9;&#9;c0.9-2.4,1.9-4.9,2.9-7.4c2.3-5.9,5-12.5,8-20c3.9,9,7.4,17,10.5,24.2c1.3,3,2.6,6,3.9,9s2.4,5.6,3.5,7.9c1,2.3,1.8,4.2,2.5,5.7&#10;&#9;&#9;C251.5,219.1,251.8,219.9,251.9,220.1z M237,200.3l-8-19.3l-7.7,19.3H237z M238.7,166.6h-17v-2.4h17V166.6z" id="el_ryZWYkr8F6Q"/>
	<path d="M312.6,173.4v0.7c-1.1,0-2.2,0.3-3.3,0.8c-1.2,0.5-2,1.2-2.4,2.1c-0.4,0.7-0.6,1.5-0.8,2.3c-0.1,0.9-0.2,1.8-0.3,2.8&#10;&#9;&#9;s-0.1,2-0.1,3.1c0,1,0,2,0,2.9v1.3l-0.8,35.1h-0.3l-34.7-44.3v28.7c0,0.7,0,1.6,0,2.6c0,1,0,2,0,3.1c0,1.1,0.2,2.1,0.3,3.1&#10;&#9;&#9;c0.2,1,0.4,1.8,0.8,2.5c0.5,0.9,1.3,1.6,2.5,2.1c1.2,0.6,2.3,0.8,3.3,0.8v0.6h-16.5V223c1,0,2.1-0.3,3.3-0.8c1.2-0.6,2-1.3,2.4-2.1&#10;&#9;&#9;c0.4-0.7,0.7-1.5,0.8-2.4c0.2-0.9,0.3-1.8,0.3-2.8c0-1,0-2,0-3s0-2,0-3v-28.7c0-0.7-0.1-1.3-0.3-1.9c-0.1-0.6-0.3-1.1-0.5-1.4&#10;&#9;&#9;c-0.3-0.4-0.8-0.8-1.4-1.2c-0.7-0.4-1.4-0.7-2.2-0.9c-0.8-0.2-1.6-0.4-2.4-0.6c-0.8-0.1-1.4-0.2-1.9-0.2v-0.7H272l31.1,41v-26.2&#10;&#9;&#9;c0-0.8,0-1.6,0-2.6s0-2,0-3c0-1-0.2-2-0.3-3c-0.2-1-0.4-1.8-0.8-2.5c-0.4-0.9-1.2-1.6-2.4-2.1c-1.2-0.5-2.3-0.8-3.3-0.8v-0.7H312.6&#10;&#9;&#9;z" id="el_SyGWtJBLKpQ"/>
	<path d="M358.5,220.1c0.4,0.9,1.2,1.6,2.3,2.1c1.1,0.5,2.2,0.8,3.2,0.8v0.7h-18.1V223c1.1,0,2.1-0.2,3.2-0.7s1.7-1.2,1.8-2.2&#10;&#9;&#9;c0-0.4-0.1-1.1-0.4-2.1c-0.3-1-0.8-2.3-1.4-3.8c-0.6-1.5-1.3-3.3-2.1-5.3c-0.8-2-1.7-4.1-2.6-6.4h-17.4l-4.5,11.5&#10;&#9;&#9;c-0.6,1.6-0.9,3-0.9,4c0,1,0.3,1.9,0.6,2.7c0.4,0.9,1.2,1.5,2.3,1.8c1.1,0.3,2.2,0.5,3.2,0.5v0.7h-18.1V223c1.6,0,2.9-0.4,3.9-1.2&#10;&#9;&#9;c1-0.8,1.9-1.6,2.8-2.4c0.9-0.9,1.7-2.1,2.5-3.6c0.8-1.5,1.5-3.1,2.1-4.6c0.9-2.4,1.8-4.5,2.5-6.4c0.8-1.9,1.6-4.1,2.6-6.5&#10;&#9;&#9;c0.9-2.4,1.9-4.9,2.9-7.4c2.3-5.9,5-12.5,8-20c3.9,9,7.4,17,10.5,24.2c1.3,3,2.6,6,3.9,9s2.4,5.6,3.5,7.9c1,2.3,1.8,4.2,2.5,5.7&#10;&#9;&#9;C358,219.1,358.4,219.9,358.5,220.1z M343.6,200.3l-8-19.3l-7.7,19.3H343.6z" id="el_SJm-t1SLKpX"/>
	<path d="M405.3,219.7c1.1,0.9,2.3,1.6,3.8,2.3c1.5,0.7,2.7,1,3.8,1v0.6h-19.7V223c1,0,1.9-0.1,2.6-0.4s1.3-0.9,1.5-1.9&#10;&#9;&#9;c0.1-0.5,0-1.1-0.3-1.7s-0.6-1.3-1-2c-0.5-0.8-1.1-1.6-1.7-2.4l-13.1-16.8l-2,2v9.1c0,0.8,0,1.6,0,2.6c0,1,0,2,0,3c0,1,0.2,2,0.3,3&#10;&#9;&#9;c0.2,1,0.4,1.8,0.8,2.5c0.4,0.9,1.1,1.6,2,2.1c0.9,0.6,1.9,0.8,3,0.8v0.6h-18.1V223c1,0,2.1-0.3,3.2-0.8c1.1-0.6,1.9-1.3,2.3-2.1&#10;&#9;&#9;c0.4-0.7,0.7-1.5,0.8-2.4c0.2-0.9,0.3-1.8,0.3-2.8c0-1,0-2,0-3s0-2,0-3V188c0-0.8,0-1.6,0-2.6c0-1,0-2,0-3.1c0-1.1-0.2-2.1-0.3-3&#10;&#9;&#9;c-0.2-1-0.4-1.8-0.8-2.4c-0.4-0.9-1.3-1.6-2.5-2.1c-1.2-0.5-2.4-0.8-3.4-0.8v-0.7h18v0.7c-1.1,0-2,0.3-2.7,0.8&#10;&#9;&#9;c-0.7,0.5-1.3,1.2-1.8,2.1c-0.4,0.7-0.7,1.5-0.8,2.4c-0.2,0.9-0.3,1.8-0.3,2.8c0,1-0.1,1.9,0,3c0,1,0,2,0,3v9.3l15.8-17.2&#10;&#9;&#9;c0.3-0.3,0.6-0.7,0.8-1.1c0.2-0.3,0.3-0.7,0.4-1c0.1-0.4,0.1-0.7,0-1.1c-0.2-0.9-0.8-1.6-1.7-2.1c-0.9-0.5-1.8-0.8-2.9-0.8v-0.7&#10;&#9;&#9;h16.8v0.7c-1.1,0-2.2,0.3-3.4,0.8c-1.2,0.6-2.2,1.2-2.9,1.8c-0.4,0.3-0.8,0.7-1.3,1.2c-0.5,0.4-0.9,0.9-1.3,1.3l-1.6,1.6L384.9,194&#10;&#9;&#9;l16.1,20.6c0.5,0.8,1.1,1.5,1.6,2.2c0.4,0.6,0.9,1.1,1.4,1.7C404.5,219,404.9,219.4,405.3,219.7z" id="el_BJVbtyB8YTX"/>
	<path d="M460.3,220.1c0.4,0.9,1.2,1.6,2.3,2.1c1.1,0.5,2.2,0.8,3.2,0.8v0.7h-18.1V223c1.1,0,2.1-0.2,3.2-0.7s1.7-1.2,1.8-2.2&#10;&#9;&#9;c0-0.4-0.1-1.1-0.4-2.1c-0.3-1-0.8-2.3-1.4-3.8c-0.6-1.5-1.3-3.3-2.1-5.3c-0.8-2-1.7-4.1-2.6-6.4h-17.4l-4.5,11.5&#10;&#9;&#9;c-0.6,1.6-0.9,3-0.9,4c0,1,0.3,1.9,0.6,2.7c0.4,0.9,1.2,1.5,2.3,1.8c1.1,0.3,2.2,0.5,3.2,0.5v0.7h-18.1V223c1.6,0,2.9-0.4,3.9-1.2&#10;&#9;&#9;c1-0.8,1.9-1.6,2.8-2.4c0.9-0.9,1.7-2.1,2.5-3.6c0.8-1.5,1.5-3.1,2.1-4.6c0.9-2.4,1.8-4.5,2.5-6.4c0.8-1.9,1.6-4.1,2.6-6.5&#10;&#9;&#9;c0.9-2.4,1.9-4.9,2.9-7.4c2.3-5.9,5-12.5,8-20c3.9,9,7.4,17,10.5,24.2c1.3,3,2.6,6,3.9,9s2.4,5.6,3.5,7.9c1,2.3,1.8,4.2,2.5,5.7&#10;&#9;&#9;C459.8,219.1,460.2,219.9,460.3,220.1z M445.4,200.3l-8-19.3l-7.7,19.3H445.4z" id="el_HkB-tJBUt6m"/>
</g>
<g id="el_SJLbYJB8Ypm">
	<path d="M209.8,173.3v9.5h-0.7c0-1.2-0.3-2.3-0.8-3.5c-0.5-1.2-1.2-2-2.1-2.5c-0.8-0.4-1.7-0.7-2.6-0.8c-0.9-0.1-1.8-0.2-2.7-0.3&#10;&#9;&#9;c-0.5,0-1.2-0.1-2.1-0.1c-0.9,0-1.9,0-3-0.1c-1,0-2,0-3,0c-0.9,0-1.6,0-2.1,0V209c0,0.7,0,1.6,0,2.6c0,1,0,2,0,3.1&#10;&#9;&#9;c0,1.1,0.2,2.1,0.3,3.1c0.2,1,0.4,1.8,0.8,2.5c0.2,0.4,0.5,0.8,1,1.2c0.5,0.4,1,0.7,1.6,0.9c0.6,0.3,1.2,0.5,1.8,0.6&#10;&#9;&#9;c0.6,0.1,1.2,0.2,1.7,0.2v0.6h-20.1v-0.6c0.5,0,1-0.1,1.7-0.2s1.2-0.3,1.8-0.6c0.6-0.3,1.1-0.6,1.6-0.9c0.5-0.4,0.8-0.8,1.1-1.2&#10;&#9;&#9;c0.4-0.7,0.6-1.5,0.8-2.4c0.1-0.9,0.2-1.8,0.3-2.8s0.1-1.9,0-3c0-1,0-2,0-3v-33.4c-0.5,0-1.2,0-2.1,0c-0.9,0-1.9,0-3,0&#10;&#9;&#9;c-1,0-2,0-3,0.1c-0.9,0-1.6,0.1-2.1,0.1c-0.9,0.1-1.8,0.2-2.7,0.3c-0.9,0.1-1.7,0.3-2.6,0.8c-0.9,0.5-1.6,1.4-2.1,2.5&#10;&#9;&#9;c-0.5,1.2-0.8,2.3-0.8,3.5h-0.7v-9.5H209.8z" id="el_S1DWKkS8Fam"/>
	<path d="M251.8,213l-1.1,10.7h-34.8V223c1,0,2.1-0.3,3.2-0.8c1.1-0.5,1.9-1.2,2.3-2.1c0.3-0.7,0.6-1.5,0.8-2.3s0.3-1.8,0.3-2.8&#10;&#9;&#9;c0-1,0.1-2,0.1-3.1c0-1,0-2,0-2.9v-19.8c0-1.8,0-3.7-0.1-5.7c-0.1-2-0.6-3.8-1.6-5.6c-0.3-0.5-0.7-1-1.2-1.5&#10;&#9;&#9;c-0.5-0.5-1.1-0.9-1.8-1.3c-0.6-0.4-1.3-0.6-1.9-0.8c-0.6-0.2-1.2-0.3-1.8-0.3v-0.6h33.8l0.4,8.2h-0.7c-0.1-2.2-0.9-3.8-2.4-4.9&#10;&#9;&#9;c-0.4-0.2-1.1-0.4-2.1-0.6c-1-0.1-2.1-0.3-3.3-0.3c-1.2-0.1-2.3-0.1-3.4-0.2c-1.1,0-1.9-0.1-2.5-0.1l-6-0.2v21.7h2.2&#10;&#9;&#9;c2,0,4-0.1,6-0.2c0.9,0,1.8-0.1,2.7-0.2c0.9-0.1,1.8-0.3,2.6-0.7c0.4-0.2,0.8-0.6,1.2-1.2c0.4-0.6,0.7-1.2,1.1-1.9&#10;&#9;&#9;c0.3-0.7,0.6-1.4,0.8-2.1c0.2-0.7,0.3-1.3,0.3-1.8h0.7l-0.5,5.8c-0.2,2.3-0.2,4.7,0,7.1l0.5,5.8h-0.7c0-0.5-0.1-1.2-0.3-1.9&#10;&#9;&#9;c-0.2-0.7-0.5-1.4-0.8-2.2c-0.3-0.7-0.7-1.4-1.1-1.9c-0.4-0.6-0.8-0.9-1.2-1.2c-0.8-0.4-1.7-0.6-2.6-0.7c-0.9-0.1-1.8-0.2-2.7-0.3&#10;&#9;&#9;c-1-0.1-2-0.1-3-0.1c-1,0-2,0-3,0h-2.2v16.5c0,2.3,0.5,4,1.6,5c1.1,1,2.3,1.5,3.8,1.5h3.1c0.8,0,1.6,0,2.5,0s1.5,0,2-0.1&#10;&#9;&#9;c1.2,0,2.1-0.1,2.8-0.1c0.7,0,1.2-0.1,1.7-0.3c0.4-0.1,0.8-0.3,1.2-0.6c0.4-0.3,0.8-0.6,1.3-1c1.1-1,1.9-2.1,2.4-3.4&#10;&#9;&#9;s0.8-2.5,0.8-3.6H251.8z" id="el_rJu-t1rUY6Q"/>
	<path d="M314.2,219.7c1.1,0.9,2.3,1.6,3.8,2.3c1.5,0.7,2.7,1,3.8,1v0.6h-19.7V223c1,0,1.9-0.1,2.6-0.4c0.7-0.3,1.3-0.9,1.5-1.9&#10;&#9;&#9;c0.1-0.5,0-1.1-0.3-1.7s-0.6-1.3-1-2c-0.5-0.8-1.1-1.6-1.7-2.4l-13.1-16.8l-2,2v9.1c0,0.8,0,1.6,0,2.6c0,1,0,2,0,3s0.2,2,0.3,3&#10;&#9;&#9;c0.2,1,0.4,1.8,0.8,2.5c0.4,0.9,1.1,1.6,2,2.1c0.9,0.6,1.9,0.8,3,0.8v0.6h-18.1V223c1,0,2.1-0.3,3.2-0.8c1.1-0.6,1.9-1.3,2.3-2.1&#10;&#9;&#9;c0.4-0.7,0.7-1.5,0.8-2.4c0.2-0.9,0.3-1.8,0.3-2.8c0-1,0-2,0-3s0-2,0-3V188c0-0.8,0-1.6,0-2.6s0-2,0-3.1c0-1.1-0.2-2.1-0.3-3&#10;&#9;&#9;c-0.2-1-0.4-1.8-0.8-2.4c-0.4-0.9-1.3-1.6-2.5-2.1c-1.2-0.5-2.4-0.8-3.4-0.8v-0.7h18v0.7c-1.1,0-2,0.3-2.7,0.8&#10;&#9;&#9;c-0.7,0.5-1.3,1.2-1.8,2.1c-0.4,0.7-0.7,1.5-0.8,2.4c-0.2,0.9-0.3,1.8-0.3,2.8c0,1-0.1,1.9,0,3s0,2,0,3v9.3l15.8-17.2&#10;&#9;&#9;c0.3-0.3,0.6-0.7,0.8-1.1c0.2-0.3,0.3-0.7,0.4-1c0.1-0.4,0.1-0.7,0-1.1c-0.2-0.9-0.8-1.6-1.7-2.1c-0.9-0.5-1.8-0.8-2.9-0.8v-0.7&#10;&#9;&#9;h16.8v0.7c-1.1,0-2.2,0.3-3.4,0.8c-1.2,0.6-2.2,1.2-2.9,1.8c-0.4,0.3-0.8,0.7-1.3,1.2c-0.5,0.4-0.9,0.9-1.3,1.3l-1.6,1.6L293.8,194&#10;&#9;&#9;l16.1,20.6c0.5,0.8,1.1,1.5,1.6,2.2c0.4,0.6,0.9,1.1,1.4,1.7C313.4,219,313.8,219.4,314.2,219.7z" id="el_rkFWKyS8ta7"/>
	<path d="M369.2,220.1c0.4,0.9,1.2,1.6,2.3,2.1c1.1,0.5,2.2,0.8,3.2,0.8v0.7h-18.1V223c1.1,0,2.1-0.2,3.2-0.7s1.7-1.2,1.8-2.2&#10;&#9;&#9;c0-0.4-0.1-1.1-0.4-2.1c-0.3-1-0.8-2.3-1.4-3.8c-0.6-1.5-1.3-3.3-2.1-5.3c-0.8-2-1.7-4.1-2.6-6.4h-17.4l-4.5,11.5&#10;&#9;&#9;c-0.6,1.6-0.9,3-0.9,4c0,1,0.3,1.9,0.6,2.7c0.4,0.9,1.2,1.5,2.3,1.8c1.1,0.3,2.2,0.5,3.2,0.5v0.7h-18.1V223c1.6,0,2.9-0.4,3.9-1.2&#10;&#9;&#9;c1-0.8,1.9-1.6,2.8-2.4c0.9-0.9,1.7-2.1,2.5-3.6c0.8-1.5,1.5-3.1,2.1-4.6c0.9-2.4,1.8-4.5,2.5-6.4c0.8-1.9,1.6-4.1,2.6-6.5&#10;&#9;&#9;c0.9-2.4,1.9-4.9,2.9-7.4c2.3-5.9,5-12.5,8-20c3.9,9,7.4,17,10.5,24.2c1.3,3,2.6,6,3.9,9s2.4,5.6,3.5,7.9c1,2.3,1.8,4.2,2.5,5.7&#10;&#9;&#9;C368.8,219.1,369.1,219.9,369.2,220.1z M354.3,200.3l-8-19.3l-7.7,19.3H354.3z" id="el_BJ5-F1SLFpQ"/>
	<path d="M404.4,171.9c3.5,0,6.8,0.7,9.9,2.1s5.8,3.3,8.1,5.7c2.3,2.4,4.1,5.2,5.4,8.5c1.3,3.2,2,6.7,2,10.3c0,3.7-0.7,7.2-2,10.4&#10;&#9;&#9;c-1.3,3.2-3.1,6-5.4,8.4c-2.3,2.4-5,4.3-8.1,5.7c-3.1,1.4-6.4,2.1-9.9,2.1s-6.8-0.7-9.9-2.1c-3.1-1.4-5.8-3.3-8.1-5.7&#10;&#9;&#9;c-2.3-2.4-4.1-5.2-5.4-8.4c-1.3-3.2-2-6.7-2-10.4c0-3.6,0.7-7.1,2-10.3c1.3-3.2,3.1-6.1,5.4-8.5c2.3-2.4,5-4.3,8.1-5.7&#10;&#9;&#9;S400.9,171.9,404.4,171.9z M404.4,223.1c2.6,0,5-0.6,7.3-1.9c2.3-1.3,4.3-3.1,6-5.3c1.7-2.2,3.1-4.8,4.1-7.8c1-3,1.5-6.2,1.5-9.6&#10;&#9;&#9;c0-3.4-0.5-6.6-1.5-9.6c-1-3-2.3-5.6-4.1-7.8c-1.7-2.2-3.7-4-6-5.3c-2.3-1.3-4.8-1.9-7.3-1.9c-2.6,0-5,0.6-7.3,1.9s-4.3,3.1-6,5.3&#10;&#9;&#9;c-1.7,2.2-3.1,4.8-4.1,7.8c-1,3-1.5,6.2-1.5,9.6c0,3.4,0.5,6.6,1.5,9.6c1,3,2.3,5.6,4.1,7.8c1.7,2.2,3.7,4,6,5.3&#10;&#9;&#9;C399.3,222.5,401.8,223.1,404.4,223.1z" id="el_r1oZF1rUta7"/>
</g>
<g id="el_r12bY1SLKam">
	<path d="M150.7,173.3v0.6c-1.1,0-2.1,0.3-3.2,0.9s-1.9,1.3-2.4,2.1c-0.3,0.4-0.7,1.1-1.1,2.1c-0.5,1-0.9,2.1-1.5,3.3&#10;&#9;&#9;c-0.5,1.2-1,2.4-1.5,3.7c-0.5,1.2-0.9,2.3-1.3,3.2l-13.2,34.5h-0.8l-15.4-40.3l-15,40.3h-0.9L80.9,189c-0.3-0.8-0.8-1.8-1.3-3.1&#10;&#9;&#9;c-0.5-1.2-1-2.4-1.5-3.6s-1-2.3-1.5-3.3c-0.5-1-0.8-1.7-1.1-2.1c-0.6-0.8-1.4-1.5-2.5-2.1c-1.1-0.6-2.1-0.9-3.1-0.9v-0.6h17.9v0.6&#10;&#9;&#9;c-1,0-1.8,0.1-2.4,0.4c-0.6,0.3-1.2,0.9-1.9,1.8c-0.3,0.5-0.4,1.2-0.3,2.2c0.1,1,0.4,2.1,0.7,3.3c0.4,1.2,0.8,2.4,1.2,3.6&#10;&#9;&#9;c0.5,1.2,0.9,2.3,1.2,3.3l10,26.2l9.7-27.1c0.6-1.6,1-2.9,1.3-3.9c0.3-1,0.5-1.9,0.6-2.6c0.1-0.7,0.1-1.4,0-1.9&#10;&#9;&#9;c-0.1-0.6-0.2-1.1-0.4-1.8c-0.4-1.2-1.2-2.1-2.3-2.7c-1.1-0.5-2.3-0.8-3.4-0.8v-0.6h16.5v0.6c-1.1,0-1.8,0.1-2.3,0.4&#10;&#9;&#9;c-0.5,0.3-1,0.8-1.5,1.6c-0.2,0.4-0.3,1.2-0.1,2.3c0.2,1.1,0.5,2.3,0.9,3.7c0.4,1.3,0.8,2.7,1.3,4c0.5,1.3,0.9,2.4,1.3,3.3&#10;&#9;&#9;l9.8,25.6l10-27.1c0.4-1.2,0.8-2.5,1.2-3.8c0.4-1.3,0.6-2.4,0.9-3.5c0.2-1.1,0.3-2,0.4-2.8c0-0.8-0.1-1.4-0.4-1.8&#10;&#9;&#9;c-0.7-0.9-1.3-1.5-2-1.6c-0.6-0.2-1.5-0.3-2.6-0.3v-0.6H150.7z" id="el_r1abFyHLY67"/>
	<path d="M196.8,176.8c-0.7,1.5-1.1,3.3-1,5.3c0,2,0,4,0,6v20.9c0,0.7,0,1.6,0,2.6c0,1,0,2,0,3c0,1,0.1,2,0.3,3&#10;&#9;&#9;c0.1,1,0.4,1.8,0.8,2.6c0.5,0.9,1.3,1.6,2.4,2.1c1.1,0.5,2.2,0.8,3.2,0.8v0.7h-18.1V223c1,0,2-0.3,2.9-0.8c0.9-0.5,1.6-1.2,2.1-2.1&#10;&#9;&#9;c0.4-0.7,0.6-1.5,0.8-2.4c0.1-0.9,0.2-1.8,0.3-2.8c0-1,0.1-1.9,0-3s0-2,0-3v-9.9h-25.9v9.9c0,0.7,0,1.6,0,2.6c0,1,0,2,0,3&#10;&#9;&#9;c0,1,0.1,2,0.3,3c0.1,1,0.4,1.8,0.8,2.6c0.4,0.9,1.1,1.6,2.1,2.1c0.9,0.5,1.9,0.8,2.9,0.8v0.7h-18.1V223c1.1,0,2.1-0.3,3.2-0.8&#10;&#9;&#9;c1.1-0.5,1.9-1.2,2.4-2.1c0.4-0.7,0.6-1.5,0.8-2.4c0.1-0.9,0.2-1.8,0.3-2.8c0-1,0.1-1.9,0-3s0-2,0-3V188c0-0.8,0-1.7,0-2.7&#10;&#9;&#9;c0-1,0-2,0-3c0-1-0.2-2-0.3-3c-0.2-1-0.4-1.8-0.8-2.6c-0.5-0.8-1.3-1.5-2.6-2.1c-1.2-0.6-2.3-0.8-3.3-0.8v-0.6H170v0.6&#10;&#9;&#9;c-1,0-1.9,0.3-2.7,0.8c-0.8,0.6-1.4,1.2-1.8,2.1c-0.7,1.5-1.1,3.3-1,5.3c0,2,0,4,0,6v8.9h25.9V188c0-0.9,0-1.8,0-2.7&#10;&#9;&#9;c0-1,0-1.9,0-2.9c0-1-0.1-2-0.3-2.9c-0.2-1-0.4-1.8-0.8-2.7c-0.4-0.8-1-1.5-1.8-2.1c-0.8-0.6-1.7-0.8-2.7-0.8v-0.6h17.9v0.6&#10;&#9;&#9;c-1.1,0-2.2,0.3-3.4,0.8C198.1,175.3,197.3,176,196.8,176.8z" id="el_ByAWFkSLKpm"/>
	<path d="M228.6,223.7h-20.2V223c0.5,0,1.1-0.1,1.7-0.2c0.6-0.1,1.2-0.3,1.8-0.6c0.6-0.2,1.1-0.5,1.6-0.9c0.5-0.4,0.8-0.8,1.1-1.2&#10;&#9;&#9;c0.3-0.7,0.6-1.5,0.8-2.3s0.3-1.8,0.3-2.8c0-1,0.1-2,0.1-3.1c0-1,0-2,0-2.9V188c0-0.8,0-1.7,0-2.7c0-1,0-2,0-3.1c0-1-0.2-2-0.3-3&#10;&#9;&#9;c-0.2-1-0.4-1.8-0.8-2.5c-0.4-0.8-1.1-1.5-1.9-2.1c-0.8-0.6-1.8-0.8-2.8-0.8v-0.6h17.1v0.6c-1,0-1.9,0.3-2.8,0.8&#10;&#9;&#9;c-0.8,0.6-1.5,1.2-1.9,2.1c-0.8,1.5-1.1,3.2-1.1,5.2c0,2,0,4,0,6v20.9c0,0.8,0,1.6,0,2.6c0,1,0,2,0,3c0,1,0.2,2,0.3,3&#10;&#9;&#9;c0.2,1,0.4,1.8,0.8,2.5c0.2,0.4,0.5,0.8,1,1.2c0.5,0.4,1.1,0.7,1.7,0.9c0.6,0.2,1.2,0.4,1.8,0.6c0.6,0.1,1.2,0.2,1.7,0.2V223.7z" id="el_BJkfFJrLKTX"/>
	<path d="M275.8,173.3v9.5h-0.7c0-1.2-0.3-2.3-0.8-3.5c-0.5-1.2-1.2-2-2.1-2.5c-0.8-0.4-1.7-0.7-2.6-0.8c-0.9-0.1-1.8-0.2-2.7-0.3&#10;&#9;&#9;c-0.5,0-1.2-0.1-2.1-0.1c-0.9,0-1.9,0-3-0.1c-1,0-2,0-3,0c-0.9,0-1.6,0-2.1,0V209c0,0.7,0,1.6,0,2.6c0,1,0,2,0,3.1&#10;&#9;&#9;c0,1.1,0.2,2.1,0.3,3.1c0.2,1,0.4,1.8,0.8,2.5c0.2,0.4,0.5,0.8,1,1.2c0.5,0.4,1,0.7,1.6,0.9c0.6,0.3,1.2,0.5,1.8,0.6&#10;&#9;&#9;c0.6,0.1,1.2,0.2,1.7,0.2v0.6h-20.1v-0.6c0.5,0,1-0.1,1.7-0.2c0.6-0.1,1.2-0.3,1.8-0.6c0.6-0.3,1.1-0.6,1.6-0.9&#10;&#9;&#9;c0.5-0.4,0.8-0.8,1.1-1.2c0.4-0.7,0.6-1.5,0.8-2.4s0.2-1.8,0.3-2.8c0-1,0.1-1.9,0-3c0-1,0-2,0-3v-33.4c-0.5,0-1.2,0-2.1,0&#10;&#9;&#9;s-1.9,0-3,0c-1,0-2,0-3,0.1c-0.9,0-1.6,0.1-2.1,0.1c-0.9,0.1-1.8,0.2-2.7,0.3c-0.9,0.1-1.7,0.3-2.6,0.8c-0.9,0.5-1.6,1.4-2.1,2.5&#10;&#9;&#9;c-0.5,1.2-0.8,2.3-0.8,3.5h-0.7v-9.5H275.8z" id="el_HkgzFyS8tTm"/>
	<path d="M301.9,223.7h-20.2V223c0.5,0,1.1-0.1,1.7-0.2c0.6-0.1,1.2-0.3,1.8-0.6c0.6-0.2,1.1-0.5,1.6-0.9c0.5-0.4,0.8-0.8,1.1-1.2&#10;&#9;&#9;c0.3-0.7,0.6-1.5,0.8-2.3c0.2-0.9,0.3-1.8,0.3-2.8c0-1,0.1-2,0.1-3.1c0-1,0-2,0-2.9V188c0-0.8,0-1.7,0-2.7c0-1,0-2,0-3.1&#10;&#9;&#9;s-0.2-2-0.3-3c-0.2-1-0.4-1.8-0.8-2.5c-0.4-0.8-1.1-1.5-1.9-2.1c-0.8-0.6-1.8-0.8-2.8-0.8v-0.6h17.1v0.6c-1,0-1.9,0.3-2.8,0.8&#10;&#9;&#9;c-0.8,0.6-1.5,1.2-1.9,2.1c-0.8,1.5-1.1,3.2-1.1,5.2c0,2,0,4,0,6v20.9c0,0.8,0,1.6,0,2.6c0,1,0,2,0,3s0.2,2,0.3,3&#10;&#9;&#9;c0.2,1,0.4,1.8,0.8,2.5c0.2,0.4,0.5,0.8,1,1.2c0.5,0.4,1.1,0.7,1.7,0.9c0.6,0.2,1.2,0.4,1.8,0.6c0.6,0.1,1.2,0.2,1.7,0.2V223.7z" id="el_Hk-ztySLY6X"/>
	<path d="M354.1,220.1c0.4,0.9,1.2,1.6,2.3,2.1c1.1,0.5,2.2,0.8,3.2,0.8v0.7h-18.1V223c1.1,0,2.1-0.2,3.2-0.7s1.7-1.2,1.8-2.2&#10;&#9;&#9;c0-0.4-0.1-1.1-0.4-2.1c-0.3-1-0.8-2.3-1.4-3.8c-0.6-1.5-1.3-3.3-2.1-5.3c-0.8-2-1.7-4.1-2.6-6.4h-17.4l-4.5,11.5&#10;&#9;&#9;c-0.6,1.6-0.9,3-0.9,4c0,1,0.3,1.9,0.6,2.7c0.4,0.9,1.2,1.5,2.3,1.8c1.1,0.3,2.2,0.5,3.2,0.5v0.7h-18.1V223c1.6,0,2.9-0.4,3.9-1.2&#10;&#9;&#9;c1-0.8,1.9-1.6,2.8-2.4c0.9-0.9,1.7-2.1,2.5-3.6c0.8-1.5,1.5-3.1,2.1-4.6c0.9-2.4,1.8-4.5,2.5-6.4c0.8-1.9,1.6-4.1,2.6-6.5&#10;&#9;&#9;c0.9-2.4,1.9-4.9,2.9-7.4c2.3-5.9,5-12.5,8-20c3.9,9,7.4,17,10.5,24.2c1.3,3,2.6,6,3.9,9s2.4,5.6,3.5,7.9c1,2.3,1.8,4.2,2.5,5.7&#10;&#9;&#9;C353.7,219.1,354,219.9,354.1,220.1z M339.2,200.3l-8-19.3l-7.7,19.3H339.2z" id="el_HyMfKkSLY67"/>
	<path d="M414.8,173.4v0.7c-1.1,0-2.2,0.3-3.3,0.8c-1.2,0.5-2,1.2-2.4,2.1c-0.4,0.7-0.6,1.5-0.8,2.3c-0.1,0.9-0.2,1.8-0.3,2.8&#10;&#9;&#9;s-0.1,2-0.1,3.1c0,1,0,2,0,2.9v1.3l-0.8,35.1h-0.3l-34.7-44.3v28.7c0,0.7,0,1.6,0,2.6c0,1,0,2,0,3.1c0,1.1,0.2,2.1,0.3,3.1&#10;&#9;&#9;c0.2,1,0.4,1.8,0.8,2.5c0.5,0.9,1.3,1.6,2.5,2.1c1.2,0.6,2.3,0.8,3.3,0.8v0.6h-16.5V223c1,0,2.1-0.3,3.3-0.8c1.2-0.6,2-1.3,2.4-2.1&#10;&#9;&#9;c0.4-0.7,0.7-1.5,0.8-2.4c0.2-0.9,0.3-1.8,0.3-2.8c0-1,0-2,0-3s0-2,0-3v-28.7c0-0.7-0.1-1.3-0.3-1.9c-0.1-0.6-0.3-1.1-0.5-1.4&#10;&#9;&#9;c-0.3-0.4-0.8-0.8-1.4-1.2c-0.7-0.4-1.4-0.7-2.2-0.9c-0.8-0.2-1.6-0.4-2.4-0.6c-0.8-0.1-1.4-0.2-1.9-0.2v-0.7h13.5l31.1,41v-26.2&#10;&#9;&#9;c0-0.8,0-1.6,0-2.6s0-2,0-3c0-1-0.2-2-0.3-3c-0.2-1-0.4-1.8-0.8-2.5c-0.4-0.9-1.2-1.6-2.4-2.1c-1.2-0.5-2.3-0.8-3.3-0.8v-0.7H414.8&#10;&#9;&#9;z" id="el_HJXMtkSLFaQ"/>
	<path d="M465.9,218.5c0.4,0.4,1.1,0.5,2.2,0.5c-1.1,0.8-2.3,1.6-3.6,2.3s-2.9,1.4-4.6,1.9c-1.7,0.5-3.6,0.9-5.8,1.2&#10;&#9;&#9;c-2.2,0.3-4.6,0.5-7.3,0.5c-3.5,0-6.8-0.7-10-2.1c-3.2-1.4-6-3.3-8.4-5.7c-2.4-2.4-4.3-5.2-5.8-8.5s-2.1-6.6-2.1-10.3&#10;&#9;&#9;c0-3.6,0.7-7.1,2.1-10.4c1.4-3.3,3.3-6.1,5.8-8.5c2.4-2.4,5.2-4.3,8.4-5.8s6.5-2.1,10-2.1c3.4,0,6.4,0.3,9,0.9&#10;&#9;&#9;c2.6,0.6,5,1.4,7.1,2.5c0.4,0.2,0.7,0.3,1,0.3c0.3,0,0.6,0,0.8,0s0.4-0.1,0.6-0.2v1.4v4.4v7.4h-0.9c0-2-0.3-3.7-0.8-5.2&#10;&#9;&#9;s-1.2-2.7-2-3.8s-1.8-1.9-2.8-2.6c-1.1-0.7-2.1-1.2-3.2-1.6c-1.6-0.5-3.1-0.8-4.4-1s-2.8-0.3-4.3-0.3c-2.6,0-5,0.6-7.3,1.9&#10;&#9;&#9;s-4.3,3-6,5.2c-1.7,2.2-3.1,4.7-4.1,7.6c-1,2.9-1.5,6.1-1.5,9.4c0,4.3,0.6,8.1,1.7,11.2s2.6,5.7,4.5,7.8s4,3.5,6.4,4.5&#10;&#9;&#9;c2.4,1,4.9,1.5,7.5,1.5c1.7,0,3.3-0.1,4.8-0.4c1.5-0.2,2.7-0.7,3.8-1.4c1.1-0.7,1.9-1.7,2.5-3c0.6-1.3,0.9-2.9,0.9-5&#10;&#9;&#9;c0-1.5-0.1-3-0.2-4.4c0-0.9-0.1-1.8-0.2-2.7c-0.1-0.9-0.3-1.7-0.7-2.6c-0.2-0.4-0.6-0.8-1.1-1.2c-0.5-0.4-1.1-0.7-1.7-0.9&#10;&#9;&#9;c-0.6-0.2-1.3-0.4-1.9-0.6c-0.6-0.1-1.2-0.2-1.7-0.2v-0.7h18.7v0.7c-1.1,0-2,0.3-2.8,0.8c-0.8,0.5-1.5,1.2-1.9,2.1&#10;&#9;&#9;c-0.4,0.8-0.6,1.7-0.7,2.6c-0.1,0.9-0.2,1.8-0.3,2.7c0,0.6-0.1,1.2-0.1,1.8c0,0.6,0,1.2-0.1,1.8v5&#10;&#9;&#9;C465.3,217.7,465.5,218.1,465.9,218.5z" id="el_Bk4fYyBIFam"/>
	<path d="M524.6,220.1c0.4,0.9,1.2,1.6,2.3,2.1c1.1,0.5,2.2,0.8,3.2,0.8v0.7H512V223c1.1,0,2.1-0.2,3.2-0.7s1.7-1.2,1.8-2.2&#10;&#9;&#9;c0-0.4-0.1-1.1-0.4-2.1c-0.3-1-0.8-2.3-1.4-3.8c-0.6-1.5-1.3-3.3-2.1-5.3c-0.8-2-1.7-4.1-2.6-6.4h-17.4l-4.5,11.5&#10;&#9;&#9;c-0.6,1.6-0.9,3-0.9,4c0,1,0.3,1.9,0.6,2.7c0.4,0.9,1.2,1.5,2.3,1.8c1.1,0.3,2.2,0.5,3.2,0.5v0.7h-18.1V223c1.6,0,2.9-0.4,3.9-1.2&#10;&#9;&#9;c1-0.8,1.9-1.6,2.8-2.4c0.9-0.9,1.7-2.1,2.5-3.6c0.8-1.5,1.5-3.1,2.1-4.6c0.9-2.4,1.8-4.5,2.5-6.4c0.8-1.9,1.6-4.1,2.6-6.5&#10;&#9;&#9;c0.9-2.4,1.9-4.9,2.9-7.4c2.3-5.9,5-12.5,8-20c3.9,9,7.4,17,10.5,24.2c1.3,3,2.6,6,3.9,9s2.4,5.6,3.5,7.9c1,2.3,1.8,4.2,2.5,5.7&#10;&#9;&#9;C524.1,219.1,524.5,219.9,524.6,220.1z M509.7,200.3l-8-19.3l-7.7,19.3H509.7z" id="el_rkBGtySUYa7"/>
</g>
<g id="el_HyIfFyB8t67">
	<path d="M137.2,173.3v9.5h-0.7c0-1.2-0.3-2.3-0.8-3.5c-0.5-1.2-1.2-2-2.1-2.5c-0.8-0.4-1.7-0.7-2.6-0.8c-0.9-0.1-1.8-0.2-2.7-0.3&#10;&#9;&#9;c-0.5,0-1.2-0.1-2.1-0.1c-0.9,0-1.9,0-3-0.1c-1,0-2,0-3,0c-0.9,0-1.6,0-2.1,0V209c0,0.7,0,1.6,0,2.6c0,1,0,2,0,3.1&#10;&#9;&#9;c0,1.1,0.2,2.1,0.3,3.1c0.2,1,0.4,1.8,0.8,2.5c0.2,0.4,0.5,0.8,1,1.2c0.5,0.4,1,0.7,1.6,0.9c0.6,0.3,1.2,0.5,1.8,0.6&#10;&#9;&#9;c0.6,0.1,1.2,0.2,1.7,0.2v0.6h-20.1v-0.6c0.5,0,1-0.1,1.7-0.2c0.6-0.1,1.2-0.3,1.8-0.6c0.6-0.3,1.1-0.6,1.6-0.9&#10;&#9;&#9;c0.5-0.4,0.8-0.8,1.1-1.2c0.4-0.7,0.6-1.5,0.8-2.4s0.2-1.8,0.3-2.8c0-1,0.1-1.9,0-3c0-1,0-2,0-3v-33.4c-0.5,0-1.2,0-2.1,0&#10;&#9;&#9;s-1.9,0-3,0c-1,0-2,0-3,0.1c-0.9,0-1.6,0.1-2.1,0.1c-0.9,0.1-1.8,0.2-2.7,0.3c-0.9,0.1-1.7,0.3-2.6,0.8c-0.9,0.5-1.6,1.4-2.1,2.5&#10;&#9;&#9;c-0.5,1.2-0.8,2.3-0.8,3.5h-0.7v-9.5H137.2z" id="el_rJDzYyBUtaX"/>
	<path d="M183.1,220.1c0.4,0.9,1.2,1.6,2.3,2.1c1.1,0.5,2.2,0.8,3.2,0.8v0.7h-18.1V223c1.1,0,2.1-0.2,3.2-0.7s1.7-1.2,1.8-2.2&#10;&#9;&#9;c0-0.4-0.1-1.1-0.4-2.1c-0.3-1-0.8-2.3-1.4-3.8c-0.6-1.5-1.3-3.3-2.1-5.3c-0.8-2-1.7-4.1-2.6-6.4h-17.4l-4.5,11.5&#10;&#9;&#9;c-0.6,1.6-0.9,3-0.9,4c0,1,0.3,1.9,0.6,2.7c0.4,0.9,1.2,1.5,2.3,1.8c1.1,0.3,2.2,0.5,3.2,0.5v0.7h-18.1V223c1.6,0,2.9-0.4,3.9-1.2&#10;&#9;&#9;c1-0.8,1.9-1.6,2.8-2.4c0.9-0.9,1.7-2.1,2.5-3.6c0.8-1.5,1.5-3.1,2.1-4.6c0.9-2.4,1.8-4.5,2.5-6.4c0.8-1.9,1.6-4.1,2.6-6.5&#10;&#9;&#9;c0.9-2.4,1.9-4.9,2.9-7.4c2.3-5.9,5-12.5,8-20c3.9,9,7.4,17,10.5,24.2c1.3,3,2.6,6,3.9,9s2.4,5.6,3.5,7.9c1,2.3,1.8,4.2,2.5,5.7&#10;&#9;&#9;C182.6,219.1,183,219.9,183.1,220.1z M168.2,200.3l-8-19.3l-7.7,19.3H168.2z" id="el_HkuMt1rLKTX"/>
	<path d="M236.4,173.3v0.6c-1,0-2,0.3-2.8,0.8c-0.9,0.5-1.5,1.2-2,2.1c-0.4,0.7-0.6,1.5-0.8,2.4c-0.1,0.9-0.2,1.8-0.3,2.8&#10;&#9;&#9;c0,1-0.1,1.9,0,3c0,1,0,2,0,3v20.3c0,2.2-0.5,4.3-1.4,6.2c-0.9,1.9-2.2,3.6-3.7,5c-1.6,1.4-3.4,2.6-5.6,3.4&#10;&#9;&#9;c-2.1,0.8-4.4,1.3-6.8,1.3c-2.4,0-4.7-0.4-6.8-1.3c-2.1-0.8-4-2-5.5-3.4c-1.6-1.4-2.8-3.1-3.7-5c-0.9-1.9-1.4-4-1.4-6.2V188&#10;&#9;&#9;c0-0.8,0-1.7,0-2.7c0-1,0-2,0-3c0-1-0.2-2-0.3-3c-0.2-1-0.4-1.8-0.8-2.5c-0.4-0.9-1.1-1.6-2.1-2.1s-1.9-0.8-3-0.8v-0.6h18.1v0.6&#10;&#9;&#9;c-1.1,0-2,0.3-2.9,0.8c-0.9,0.5-1.5,1.2-2,2.1c-0.4,0.7-0.7,1.5-0.8,2.4c-0.2,0.9-0.3,1.8-0.3,2.8c0,1-0.1,1.9,0,3s0,2,0,3v20.3&#10;&#9;&#9;c0,1.8,0.3,3.5,1,5.1c0.7,1.6,1.6,2.9,2.8,4.1s2.6,2.1,4.2,2.8c1.6,0.7,3.3,1,5.1,1c1.8,0,3.5-0.3,5.1-1c1.6-0.7,3-1.6,4.2-2.8&#10;&#9;&#9;c1.2-1.2,2.1-2.6,2.8-4.1c0.7-1.6,1-3.3,1-5.1V188c0-0.8,0-1.6,0-2.6c0-1,0-2,0-3.1c0-1.1-0.2-2.1-0.3-3c-0.2-1-0.4-1.8-0.8-2.4&#10;&#9;&#9;c-0.4-0.9-1.2-1.6-2.2-2.1s-2.1-0.8-3.1-0.8v-0.6H236.4z" id="el_rJtGFyB8tam"/>
	<path d="M272.4,214.2c1.7,2.4,3.1,4.2,4.2,5.4c1.1,1.2,2,2.1,2.8,2.6c0.7,0.5,1.4,0.8,1.8,0.8c0.5,0,1,0,1.5,0v0.6h-10.5l-18-24.6&#10;&#9;&#9;c-0.2,0-0.4,0.1-0.5,0.1c-0.2,0-0.3,0-0.5,0v9.8c0,0.7,0,1.6,0,2.6c0,1,0,2,0,3c0,1,0.1,2,0.3,3c0.1,1,0.4,1.8,0.8,2.6&#10;&#9;&#9;c0.2,0.4,0.5,0.8,1,1.2c0.5,0.4,1,0.7,1.6,0.9c0.6,0.3,1.2,0.5,1.8,0.6c0.6,0.1,1.2,0.2,1.7,0.2v0.6h-18.7V223c1.1,0,2.1-0.3,3-0.8&#10;&#9;&#9;c1-0.6,1.7-1.3,2.1-2.1c0.4-0.7,0.7-1.5,0.8-2.4c0.2-0.9,0.3-1.8,0.3-2.8c0-1,0.1-2,0-3s0-2,0-3v-20.8c0-0.8,0-1.7,0.1-2.7&#10;&#9;&#9;c0-1,0-2,0-3c0-1-0.2-2-0.3-2.9c-0.2-1-0.5-1.8-0.9-2.7c-0.4-0.9-1.3-1.6-2.5-2.1c-1.2-0.5-2.3-0.8-3.3-0.8v-0.7h17.6&#10;&#9;&#9;c1.4,0,3.1,0.2,4.9,0.5c1.8,0.4,3.6,1,5.3,2c1.7,1,3,2.3,4.2,4c1.1,1.7,1.7,3.8,1.7,6.4c0,1.8-0.4,3.4-1.2,4.8&#10;&#9;&#9;c-0.8,1.4-1.8,2.5-3.1,3.5c-1.3,1-2.7,1.8-4.4,2.4c-1.6,0.6-3.3,1.1-5.1,1.4L272.4,214.2L272.4,214.2z M253.2,198&#10;&#9;&#9;c0.7,0,1.5,0,2.6-0.1c1-0.1,2.1-0.2,3.3-0.5c1.2-0.3,2.3-0.6,3.5-1.1c1.2-0.5,2.2-1.1,3.1-1.9c0.9-0.8,1.7-1.8,2.3-2.9&#10;&#9;&#9;c0.6-1.2,0.9-2.5,0.9-4.2v-1.1c0-1.9-0.3-3.6-1-4.9c-0.7-1.3-1.5-2.4-2.5-3.3s-2.2-1.5-3.4-1.9c-1.2-0.5-2.4-0.8-3.6-1&#10;&#9;&#9;c-1.2-0.2-2.2-0.3-3.1-0.4c-0.9,0-1.6,0-2.1,0V198z" id="el_rJ5fYkBLtp7"/>
	<path d="M330.5,220.1c0.4,0.9,1.2,1.6,2.3,2.1c1.1,0.5,2.2,0.8,3.2,0.8v0.7h-18.1V223c1.1,0,2.1-0.2,3.2-0.7s1.7-1.2,1.8-2.2&#10;&#9;&#9;c0-0.4-0.1-1.1-0.4-2.1c-0.3-1-0.8-2.3-1.4-3.8c-0.6-1.5-1.3-3.3-2.1-5.3c-0.8-2-1.7-4.1-2.6-6.4h-17.4l-4.5,11.5&#10;&#9;&#9;c-0.6,1.6-0.9,3-0.9,4c0,1,0.3,1.9,0.6,2.7c0.4,0.9,1.2,1.5,2.3,1.8c1.1,0.3,2.2,0.5,3.2,0.5v0.7h-18.1V223c1.6,0,2.9-0.4,3.9-1.2&#10;&#9;&#9;c1-0.8,1.9-1.6,2.8-2.4c0.9-0.9,1.7-2.1,2.5-3.6c0.8-1.5,1.5-3.1,2.1-4.6c0.9-2.4,1.8-4.5,2.5-6.4c0.8-1.9,1.6-4.1,2.6-6.5&#10;&#9;&#9;c0.9-2.4,1.9-4.9,2.9-7.4c2.3-5.9,5-12.5,8-20c3.9,9,7.4,17,10.5,24.2c1.3,3,2.6,6,3.9,9s2.4,5.6,3.5,7.9c1,2.3,1.8,4.2,2.5,5.7&#10;&#9;&#9;C330.1,219.1,330.4,219.9,330.5,220.1z M315.6,200.3l-8-19.3l-7.7,19.3H315.6z" id="el_rkjMtyHLtpX"/>
	<path d="M391.2,173.4v0.7c-1.1,0-2.2,0.3-3.3,0.8c-1.2,0.5-2,1.2-2.4,2.1c-0.4,0.7-0.6,1.5-0.8,2.3c-0.1,0.9-0.2,1.8-0.3,2.8&#10;&#9;&#9;c0,1-0.1,2-0.1,3.1c0,1,0,2,0,2.9v1.3l-0.8,35.1h-0.3l-34.7-44.3v28.7c0,0.7,0,1.6,0,2.6c0,1,0,2,0,3.1c0,1.1,0.2,2.1,0.3,3.1&#10;&#9;&#9;c0.2,1,0.4,1.8,0.8,2.5c0.5,0.9,1.3,1.6,2.5,2.1c1.2,0.6,2.3,0.8,3.3,0.8v0.6H339V223c1,0,2.1-0.3,3.3-0.8c1.2-0.6,2-1.3,2.4-2.1&#10;&#9;&#9;c0.4-0.7,0.7-1.5,0.8-2.4c0.2-0.9,0.3-1.8,0.3-2.8c0-1,0-2,0-3s0-2,0-3v-28.7c0-0.7-0.1-1.3-0.3-1.9c-0.1-0.6-0.3-1.1-0.5-1.4&#10;&#9;&#9;c-0.3-0.4-0.8-0.8-1.4-1.2c-0.7-0.4-1.4-0.7-2.2-0.9c-0.8-0.2-1.6-0.4-2.4-0.6c-0.8-0.1-1.4-0.2-1.9-0.2v-0.7h13.5l31.1,41v-26.2&#10;&#9;&#9;c0-0.8,0-1.6,0-2.6c0-1,0-2,0-3c0-1-0.2-2-0.3-3c-0.2-1-0.4-1.8-0.8-2.5c-0.4-0.9-1.2-1.6-2.4-2.1c-1.2-0.5-2.3-0.8-3.3-0.8v-0.7&#10;&#9;&#9;H391.2z" id="el_rk3GYJB8YaX"/>
	<path d="M442.2,218.5c0.4,0.4,1.1,0.5,2.2,0.5c-1.1,0.8-2.3,1.6-3.6,2.3c-1.3,0.7-2.9,1.4-4.6,1.9c-1.7,0.5-3.6,0.9-5.8,1.2&#10;&#9;&#9;c-2.2,0.3-4.6,0.5-7.3,0.5c-3.5,0-6.8-0.7-10-2.1c-3.2-1.4-6-3.3-8.4-5.7s-4.3-5.2-5.8-8.5c-1.4-3.2-2.1-6.6-2.1-10.3&#10;&#9;&#9;c0-3.6,0.7-7.1,2.1-10.4c1.4-3.3,3.3-6.1,5.8-8.5s5.2-4.3,8.4-5.8s6.5-2.1,10-2.1c3.4,0,6.4,0.3,9,0.9c2.6,0.6,5,1.4,7.1,2.5&#10;&#9;&#9;c0.4,0.2,0.7,0.3,1,0.3c0.3,0,0.6,0,0.8,0c0.2,0,0.4-0.1,0.6-0.2v1.4v4.4v7.4h-0.9c0-2-0.3-3.7-0.8-5.2s-1.2-2.7-2-3.8&#10;&#9;&#9;c-0.8-1-1.8-1.9-2.8-2.6c-1.1-0.7-2.1-1.2-3.2-1.6c-1.6-0.5-3.1-0.8-4.4-1c-1.4-0.2-2.8-0.3-4.3-0.3c-2.6,0-5,0.6-7.3,1.9&#10;&#9;&#9;c-2.3,1.3-4.3,3-6,5.2c-1.7,2.2-3.1,4.7-4.1,7.6c-1,2.9-1.5,6.1-1.5,9.4c0,4.3,0.6,8.1,1.7,11.2c1.1,3.1,2.6,5.7,4.5,7.8&#10;&#9;&#9;s4,3.5,6.4,4.5c2.4,1,4.9,1.5,7.5,1.5c1.7,0,3.3-0.1,4.8-0.4c1.5-0.2,2.7-0.7,3.8-1.4c1.1-0.7,1.9-1.7,2.5-3c0.6-1.3,0.9-2.9,0.9-5&#10;&#9;&#9;c0-1.5-0.1-3-0.2-4.4c0-0.9-0.1-1.8-0.2-2.7c-0.1-0.9-0.3-1.7-0.7-2.6c-0.2-0.4-0.6-0.8-1.1-1.2c-0.5-0.4-1.1-0.7-1.7-0.9&#10;&#9;&#9;c-0.6-0.2-1.3-0.4-1.9-0.6c-0.6-0.1-1.2-0.2-1.7-0.2v-0.7h18.7v0.7c-1.1,0-2,0.3-2.8,0.8c-0.8,0.5-1.5,1.2-1.9,2.1&#10;&#9;&#9;c-0.4,0.8-0.6,1.7-0.7,2.6c-0.1,0.9-0.2,1.8-0.3,2.7c0,0.6-0.1,1.2-0.1,1.8c0,0.6,0,1.2-0.1,1.8v5&#10;&#9;&#9;C441.7,217.7,441.9,218.1,442.2,218.5z" id="el_H1aMFkS8Ka7"/>
	<path d="M501,220.1c0.4,0.9,1.2,1.6,2.3,2.1c1.1,0.5,2.2,0.8,3.2,0.8v0.7h-18.1V223c1.1,0,2.1-0.2,3.2-0.7s1.7-1.2,1.8-2.2&#10;&#9;&#9;c0-0.4-0.1-1.1-0.4-2.1c-0.3-1-0.8-2.3-1.4-3.8c-0.6-1.5-1.3-3.3-2.1-5.3c-0.8-2-1.7-4.1-2.6-6.4h-17.4L465,214&#10;&#9;&#9;c-0.6,1.6-0.9,3-0.9,4c0,1,0.3,1.9,0.6,2.7c0.4,0.9,1.2,1.5,2.3,1.8c1.1,0.3,2.2,0.5,3.2,0.5v0.7h-18.1V223c1.6,0,2.9-0.4,3.9-1.2&#10;&#9;&#9;c1-0.8,1.9-1.6,2.8-2.4c0.9-0.9,1.7-2.1,2.5-3.6c0.8-1.5,1.5-3.1,2.1-4.6c0.9-2.4,1.8-4.5,2.5-6.4c0.8-1.9,1.6-4.1,2.6-6.5&#10;&#9;&#9;c0.9-2.4,1.9-4.9,2.9-7.4c2.3-5.9,5-12.5,8-20c3.9,9,7.4,17,10.5,24.2c1.3,3,2.6,6,3.9,9s2.4,5.6,3.5,7.9c1,2.3,1.8,4.2,2.5,5.7&#10;&#9;&#9;C500.5,219.1,500.9,219.9,501,220.1z M486,200.3l-8-19.3l-7.7,19.3H486z" id="el_SyAzt1BLtTm"/>
</g>
</svg>