<svg width="210" height="65" viewBox="0 0 210 65" fill="none" xmlns="http://www.w3.org/2000/svg">
<path d="M29.386 28.4427V39.29H45.6579V48.9026C41.9298 52.386 36.9298 54.1939 31.7105 54.1939C19.8246 54.4144 11.2281 44.3167 11.4035 32.4994C11.2281 20.8144 19.8246 11.1136 31.6228 11.2899C37.9386 11.2899 43.3772 13.8033 47.8947 18.8742L55.9649 10.1876C53.2895 7.14505 49.8246 4.67575 45.5702 2.77969C41.2719 0.927719 36.7982 0.00173392 32.1491 0.00173392C27.4561 0.00173392 23.1579 1.1041 20.9211 2.16237L12.4123 11.0254L11.4912 11.9514C9.16667 14.2884 7.2807 16.4049 5.74561 18.301C2.67544 22.1813 0 27.8695 0 34.9246C0 40.26 1.35965 45.1986 4.03509 49.8286C6.71053 54.4585 10.3947 58.1183 15.1754 60.8522C19.9561 63.6301 25.307 64.9971 31.2719 64.9971C35.4825 64.9971 39.3421 64.2916 42.1491 63.0128L56.886 47.7561V28.4427H29.386Z" fill="#00A0E9"/>
<path d="M70 64.1152H101.447L110.614 54.6349C113.421 51.7687 115.746 49.123 117.632 46.6978C121.316 41.9356 124.079 35.9829 124.079 29.2364C124.079 24.0333 122.763 19.271 120.132 14.9057C117.5 10.5844 113.86 7.14505 109.254 4.63166C104.649 2.11827 99.4737 0.883624 93.7281 0.883624H70V64.1152ZM81.2281 53.2679V11.7309H91.9298C103.772 11.8191 112.544 20.638 112.412 32.2348C112.632 44.2726 103.86 53.4884 93.7281 53.2679H81.2281Z" fill="#00A0E9"/>
<path d="M145.482 64.1152H156.272V0.883624H146.404C145.526 8.24741 138.904 13.9356 130.746 14.4647V25.0915H137.588L145.482 17.2427V64.1152Z" fill="#00A0E9"/>
<path d="M204.342 27.8254C207.632 24.3419 209.123 21.0348 209.123 17.1545C209.298 7.32143 201.096 -0.13055 190.175 0.00173392C187.193 0.00173392 184.518 0.486774 182.982 1.06L176.228 8.11513C171.842 12.8332 170.219 16.5372 170.219 20.7703C170.219 23.0191 170.833 25.2679 172.105 27.4726C173.333 29.7214 175.088 31.4852 177.325 32.764L175.263 34.9246C171.36 39.1136 169.342 43.1262 169.342 48.0207C169.211 57.3687 177.632 65.1734 189.43 64.9971C191.842 64.9971 194.825 64.512 196.798 63.6742L202.895 57.2364C205.307 54.723 207.105 52.386 208.289 50.2254C209.43 48.0648 210 45.5955 210 42.9057C210 38.3199 206.93 32.8522 201.447 30.8238L204.342 27.8254ZM189.605 9.923C194.868 9.923 198.596 13.9356 198.596 18.6978C198.596 23.3277 194.868 27.0758 189.605 27.0758C184.386 27.0758 180.746 23.3277 180.746 18.6978C180.746 13.8474 184.386 9.923 189.605 9.923ZM189.605 55.0758C183.904 55.0758 180.088 50.7104 180.088 45.4191C180.088 40.5246 183.947 36.1152 189.605 36.1152C195.351 36.1152 199.254 40.5246 199.254 45.4191C199.254 50.7104 195.351 55.0758 189.605 55.0758Z" fill="#00A0E9"/>
</svg>
