<?xml version="1.0" encoding="utf-8"?>
<!-- Generator: Adobe Illustrator 23.0.1, SVG Export Plug-In . SVG Version: 6.00 Build 0)  -->
<svg version="1.1" id="Layer_1" xmlns="http://www.w3.org/2000/svg" xmlns:xlink="http://www.w3.org/1999/xlink" x="0px" y="0px"
	 viewBox="0 0 600 600" style="enable-background:new 0 0 600 600;" xml:space="preserve">
<g id="GdRcqw_1_">
	<g>
		<path d="M229.91,494.37c-36.72,0.02-68.17-22.63-80.05-57.62c-3.67-10.81-5.53-21.89-5.04-33.31c0.53-12.55,3.62-24.51,8.91-35.87
			c8.04-17.24,19.09-32.16,34.21-43.89c12.48-9.68,26.52-15.81,42.14-18.28c7.48-1.18,14.97-0.96,22.44-0.07
			c10.83,1.3,21.22,4.16,30.92,9.23c20.87,10.9,34.15,27.98,40.35,50.5c6.74,24.49,3.96,48.26-6.85,71.08
			c-9.65,20.37-24.25,36.28-44.12,47.13C259.5,490.57,244.54,494.36,229.91,494.37z M293.49,394.2c-0.44-3.84-0.68-7.71-1.35-11.5
			c-5.09-28.93-32.7-47.39-61.41-41.16c-14.61,3.17-26.64,10.64-36.06,22.11c-12.35,15.04-17.92,32.21-14.53,51.65
			c5.56,31.86,36.1,50.67,67.25,41.44C276.05,448.24,293.52,420.31,293.49,394.2z"/>
		<path d="M0,414.91c0-29.15,0-58.3,0-87.46c0-0.95-0.03-1.9,0.08-2.84c0.24-2.17,1.13-3.14,3.32-3.28
			c2.44-0.15,4.89-0.05,7.34-0.08c12.08-0.18,24.16-0.37,36.25-0.56c7.15-0.12,14.19,0.55,21,2.93c6.93,2.42,12.95,6.26,17.77,11.78
			c9.51,10.89,14.37,23.48,13.27,38.07c-0.65,8.57-3.58,16.46-7.6,23.98c-0.37,0.7-0.79,1.37-1.13,2.08
			c-0.91,1.9-0.78,2.67,0.73,4.23c1.1,1.13,2.28,2.19,3.36,3.34c13.53,14.24,17.97,30.97,13.58,50.05
			c-2.21,9.58-6.1,18.42-12.39,26.09c-8.28,10.1-19.08,16.07-31.58,19.28c-7.78,2-15.75,2.33-23.71,2.81
			c-11.9,0.72-23.8,1.53-35.7,2.3c-0.24,0.02-0.47,0.04-0.71,0.06c-2.92,0.16-3.75-0.55-3.81-3.43c-0.05-2.37-0.01-4.74-0.01-7.11
			c0-27.41,0-54.83,0-82.24C0.03,414.91,0.01,414.91,0,414.91z M34.01,447.46c0,6.56-0.02,13.12,0.01,19.67
			c0.01,2.81,1.03,3.66,3.79,3.48c4.49-0.3,8.98-0.6,13.48-0.8c13.46-0.6,22.56-9.89,23.91-21.43c1.71-14.59-8.31-25.76-22.05-25.13
			c-5.13,0.23-10.26,0.34-15.39,0.51c-0.39,0.01-0.8,0.01-1.18,0.09c-1.43,0.29-2.22,1.08-2.46,2.51c-0.1,0.62-0.09,1.26-0.1,1.89
			C34.01,434.66,34.02,441.06,34.01,447.46z M34.03,375.28c0.01,0,0.02,0,0.03,0c0,5.22-0.03,10.43,0.01,15.65
			c0.02,2.08,0.55,2.65,2.49,2.6c4.82-0.13,9.64-0.28,14.44-0.58c2.81-0.18,5.38-1.24,7.63-2.95c3.68-2.78,5.94-6.49,7.05-10.93
			c3.14-12.57-5.34-23.19-17.53-22.77c-3.4,0.12-6.79,0.12-10.19,0.15c-3.15,0.03-3.93,0.79-3.93,3.9
			C34.03,365.32,34.03,370.3,34.03,375.28z"/>
		<path d="M356.85,160.61c-0.2,0.86-0.59,1.73-0.59,2.59c-0.01,27.66,0.02,55.31,0.05,82.97c0,3,0.07,6,0.1,9
			c0.01,0.47,0.01,0.95-0.01,1.42c-0.17,3.67-1.15,4.65-4.91,4.93c-2.13,0.16-4.26,0.27-6.38,0.51c-4.47,0.5-8.95,1.01-13.4,1.64
			c-4.77,0.68-5.15,0.4-5.15-4.5c0-22.6,0-45.2,0-67.8c0-28.05,0-56.1,0-84.15c0-4.88,0.3-5.09,5.19-5.44
			c5.75-0.41,11.51-0.85,17.22-1.59c3.66-0.47,6.26,0.65,8.31,3.65c5.43,7.96,10.89,15.9,16.39,23.82
			c14.1,20.31,28.24,40.6,42.33,60.91c0.75,1.08,1.2,2.36,1.87,3.51c0.29,0.5,0.85,1.31,1.14,1.26c0.61-0.12,1.28-0.62,1.62-1.16
			c0.3-0.47,0.26-1.21,0.26-1.83c-0.06-21.41-0.17-42.82-0.2-64.23c-0.01-8.37,0.16-16.75,0.22-25.12c0.01-0.86-0.13-1.73-0.23-2.59
			c-0.31-2.54,0.41-3.45,3.03-3.66c2.13-0.17,4.26-0.26,6.39-0.4c5.36-0.37,10.72-0.75,16.08-1.11c0.63-0.04,1.26-0.07,1.89-0.04
			c1.21,0.05,1.88,0.72,1.98,1.93c0.04,0.47,0.04,0.95,0.04,1.42c-0.01,38.56-0.02,77.12-0.02,115.68c0,11.06,0.09,22.12,0.12,33.18
			c0,0.95-0.02,1.9-0.1,2.84c-0.24,2.77-1.18,3.7-4,4.01c-0.86,0.1-1.74,0.1-2.6,0.18c-5.27,0.48-10.55,0.84-15.79,1.5
			c-3.6,0.46-6.04-0.87-8.02-3.77c-6.59-9.66-13.25-19.27-19.91-28.87c-13.06-18.83-26.13-37.64-39.2-56.45
			c-1.02-1.47-2.12-2.89-3.18-4.33C357.21,160.56,357.03,160.58,356.85,160.61z"/>
		<path d="M0.04,207.1c0-25.13,0-50.26,0-75.39c0-5.15,0.65-5.83,5.84-6.01c6.4-0.21,12.8-0.31,19.19-0.61
			c5.21-0.24,10.42-0.56,15.6-1.11c19.67-2.08,37.13,9.11,43.12,28.14c4.42,14.04,2.82,27.62-4.31,40.51
			c-1.68,3.03-1.67,4.01,0.75,6.48c7.76,7.92,12.59,17.32,14.36,28.26c3.83,23.66-8.76,49.76-34.2,58.65
			c-5.6,1.96-11.41,2.42-17.27,2.47c-12.72,0.12-25.44,0.19-38.16,0.28c-0.55,0-1.11-0.01-1.66-0.07c-2.06-0.21-2.92-1.05-3.19-3.13
			c-0.08-0.62-0.08-1.26-0.08-1.89c0.02-12.8,0.06-25.6,0.07-38.4c0.01-12.72,0-25.45,0-38.17C0.07,207.1,0.05,207.1,0.04,207.1z
			 M29.67,236.02c-0.05,0-0.09,0-0.14,0c0,5.68,0,11.37,0,17.05c0,0.47,0.03,0.95,0.1,1.41c0.36,2.32,1.52,3.24,3.9,3.18
			c4.1-0.11,8.2-0.22,12.3-0.28c4.69-0.07,8.82-1.61,12.33-4.71c8.73-7.69,9.94-21.85,2.66-30.91c-3.05-3.79-7.03-5.92-11.85-6.07
			c-5.44-0.17-10.9,0-16.34,0.11c-2.08,0.04-2.8,0.87-2.94,2.92c-0.04,0.55-0.02,1.11-0.02,1.66
			C29.67,225.6,29.67,230.81,29.67,236.02z M29.56,171.86c0.09,0,0.19,0,0.28,0c0,4.18-0.11,8.37,0.04,12.55
			c0.11,3.01,1.25,4.18,4.25,4.3c3.3,0.13,6.64,0.15,9.92-0.21c4.18-0.45,7.74-2.38,10-6.04c1.28-2.06,2.43-4.29,3.11-6.61
			c3.3-11.26-5.03-21.26-16.69-20.25c-2.28,0.2-4.57,0.25-6.85,0.3c-2.61,0.06-3.72,1.03-4.02,3.65c-0.06,0.54-0.02,1.1-0.02,1.65
			C29.56,164.75,29.56,168.31,29.56,171.86z"/>
		<path d="M549.75,277.25c14.07,0.39,26.01,4.69,35.57,14.69c3.42,3.58,5.97,7.75,8.01,12.24c1.35,2.98,1.07,3.95-1.89,5.52
			c-5.09,2.7-10.25,5.27-15.38,7.9c-3.09,1.58-6.18,3.18-9.28,4.74c-2.15,1.09-2.7,0.98-4.22-0.93c-1.84-2.3-3.86-4.39-6.44-5.88
			c-5.16-2.97-10.25-2.82-15.17,0.51c-10,6.76-11.85,21.84-1.96,30.27c3.6,3.07,7.75,5.12,12.07,6.91c5.1,2.11,10.22,4.2,15.25,6.47
			c4.76,2.15,9.26,4.78,13.44,7.94c11.4,8.6,17.85,20.04,19.55,34.17c0.97,8.03,1.01,16.06-0.38,24.08
			c-3.96,22.88-23.49,41.82-46.24,44.78c-21.02,2.73-40.08-7.16-49.99-26.06c-1.43-2.72-2.58-5.59-3.68-8.46
			c-0.86-2.25-0.47-3.07,1.69-4.22c7.33-3.88,14.66-7.74,22.01-11.57c2.08-1.09,2.76-0.86,4.05,1.23c1.75,2.84,3.71,5.51,6.24,7.71
			c5.37,4.67,11.61,6.41,18.52,4.72c8.19-2,12.61-7.77,14.2-15.76c2.02-10.15-2.38-19.68-11.52-24.58
			c-4.36-2.34-9.05-4.11-13.68-5.9c-6.2-2.4-12.25-5.07-17.94-8.53c-15.1-9.18-23.28-22.57-24.26-40.22
			c-0.9-16.15,3.24-30.87,13.35-43.62c8.25-10.41,19.29-16.05,32.41-17.68C546.12,277.49,548.17,277.38,549.75,277.25z"/>
		<path d="M595.4,82.69c0.53,1.22,0.15,2.14-0.37,3.05c-9.76,16.98-19.52,33.96-29.29,50.94c-4.69,8.15-9.39,16.29-14.08,24.43
			c-0.12,0.21-0.22,0.42-0.35,0.62c-1.69,2.52-1.58,4.96,0.03,7.52c2.94,4.68,5.78,9.43,8.64,14.16
			c11.07,18.32,22.12,36.65,33.18,54.98c0.69,1.15,1.43,2.27,2.12,3.42c0.69,1.15,1.33,2.32,1.18,3.9
			c-0.65,0.06-1.25,0.16-1.85,0.16c-9.72,0.01-19.44-0.02-29.16,0.03c-1.83,0.01-3.14-0.56-4.12-2.17
			c-8.76-14.36-17.56-28.71-26.36-43.04c-3.97-6.46-7.96-12.91-11.96-19.35c-0.45-0.72-0.98-1.38-1.85-2.58
			c-0.26,1.37-0.57,2.22-0.57,3.07c-0.02,15.88-0.01,31.77,0.01,47.65c0.01,4.5,0.08,9.01,0.06,13.51
			c-0.01,3.41-0.94,4.35-4.32,4.54c-7.18,0.4-14.35,0.81-21.53,1.21c-3,0.17-3.86-0.56-3.87-3.63c-0.03-6.72,0.05-13.43,0.05-20.15
			c0.01-43.38,0-86.77,0-130.15c0-0.08,0-0.16,0-0.24c-0.14-4.93-0.09-4.2,4.28-4.87c3.43-0.53,6.91-0.77,10.37-1
			c4.18-0.28,8.36-0.46,12.55-0.61c2.17-0.08,2.53,0.36,2.51,2.4c-0.05,6.4-0.11,12.8-0.11,19.2c-0.01,14.14,0.02,28.29,0.04,42.43
			c0,0.9,0.08,1.81,0.12,2.8c1.38-0.16,1.56-1.14,1.96-1.82c5.05-8.48,10.1-16.97,15.1-25.48c7.57-12.87,15.15-25.73,22.61-38.66
			c1.72-2.98,3.99-4.43,7.4-4.61c8.91-0.49,17.82-1.14,26.72-1.71C594.79,82.62,595.03,82.67,595.4,82.69z"/>
		<path d="M474.33,282.91c-0.43,1.11-0.73,1.91-1.04,2.7c-15.42,39.08-30.83,78.16-46.28,117.22c-1.39,3.51-2.11,7.08-2.1,10.85
			c0.05,16.68,0.05,33.35,0.07,50.03c0,3.24,0.1,6.48,0.06,9.72c-0.04,3.29-0.95,4.16-4.22,4.4c-8.27,0.61-16.54,1.22-24.81,1.87
			c-4.43,0.35-4.95-0.08-4.95-4.54c0.04-19.2,0.07-38.41,0.14-57.61c0.01-4.25-0.82-8.3-2.51-12.2
			c-15.03-34.71-30.05-69.43-45.06-104.15c-0.5-1.15-1-2.34-1.27-3.55c-0.36-1.61,0.19-2.38,1.82-2.71c1.16-0.24,2.35-0.3,3.53-0.43
			c8.71-0.95,17.43-1.89,26.14-2.83c0.39-0.04,0.79-0.09,1.18-0.12c2.83-0.17,4.05,0.52,5.14,3.17c1.36,3.28,2.59,6.62,3.89,9.93
			c7.58,19.34,15.15,38.67,22.73,58.01c0.28,0.72,0.6,1.42,1.1,2.59c0.48-1.13,0.82-1.85,1.1-2.6
			c8.92-24.14,17.84-48.29,26.76-72.43c0.19-0.52,0.39-1.04,0.56-1.56c0.72-2.12,2.18-3.09,4.43-3.26
			c9.85-0.71,19.69-1.51,29.54-2.27C471.51,283.01,472.76,282.98,474.33,282.91z"/>
		<path d="M165.02,182.87c0,20.3,0,40.61,0,60.91c0,0.79-0.01,1.58,0,2.37c0.04,3.18,0.78,3.9,4.03,3.6
			c5.19-0.47,10.37-1.04,15.56-1.55c7.39-0.73,14.77-1.46,22.16-2.19c2.12-0.21,4.24-0.46,6.37-0.58c3.14-0.17,4.05,0.69,4.05,3.75
			c0.01,7.74,0,15.48-0.02,23.22c-0.01,2.97-1.05,4.11-4.09,4.38c-10.78,0.97-21.55,1.9-32.33,2.89
			c-9.44,0.86-18.87,1.77-28.31,2.65c-4.56,0.42-9.12,0.83-13.69,1.24c-0.39,0.04-0.79,0.07-1.18,0.04
			c-1.64-0.12-2.21-0.74-2.19-2.43c0.01-1.18,0.14-2.37,0.14-3.55c0.01-46.77,0.01-93.55,0-140.32c0-4.98-0.11-9.95-0.17-14.93
			c0-0.39,0.01-0.79,0.04-1.18c0.26-3.25,1.13-3.99,4.45-4.23c6.93-0.51,13.85-1.1,20.78-1.65c0.63-0.05,1.27-0.11,1.89-0.03
			c1.52,0.2,2.26,0.9,2.47,2.42c0.14,1.01,0.13,2.05,0.12,3.07c-0.02,19.91-0.06,39.82-0.09,59.73
			C165.02,181.29,165.02,182.08,165.02,182.87z"/>
		<path d="M256.12,189.88c0-25.61,0-51.21,0-76.82c0-4.74,0.73-5.51,5.34-5.87c6.54-0.5,13.07-1.03,19.6-1.56
			c4.28-0.35,4.77,0.09,4.76,4.48c-0.02,39.99-0.05,79.98-0.07,119.97c0,11.14,0.05,22.29,0.06,33.43c0.01,4.75-0.67,5.41-5.32,5.9
			c-6.28,0.65-12.55,1.42-18.83,2.13c-0.94,0.11-1.89,0.25-2.83,0.22c-1.58-0.05-2.3-0.68-2.6-2.23c-0.15-0.77-0.15-1.57-0.15-2.36
			c-0.01-25.76-0.01-51.53-0.01-77.29C256.1,189.88,256.11,189.88,256.12,189.88z"/>
	</g>
</g>
</svg>
