<?xml version="1.0" encoding="utf-8"?>
<!-- Generator: Adobe Illustrator 23.0.1, SVG Export Plug-In . SVG Version: 6.00 Build 0)  -->
<svg version="1.1" id="Layer_1" xmlns="http://www.w3.org/2000/svg" xmlns:xlink="http://www.w3.org/1999/xlink" x="0px" y="0px"
	 viewBox="0 0 600 600" style="enable-background:new 0 0 600 600;" xml:space="preserve">
<g>
	<path d="M164.5,275.19c0.6,12.24,1.22,24.47,1.78,36.71c0.14,3.02,0.42,6.08,0.05,9.05c-0.2,1.61-1.34,3.38-2.57,4.51
		c-1.21,1.11-3.02,1.66-4.66,2.19c-19.15,6.21-38.3,12.4-57.48,18.54c-7.46,2.39-8.4,3.77-8.12,11.59
		c0.12,3.45-0.23,6.92-0.29,10.38c-0.06,3.03-0.2,6.08,0.04,9.1c0.33,4,1.97,5,5.92,4.03c0.63-0.15,1.24-0.38,1.86-0.59
		c34.05-11.8,68.11-23.61,102.16-35.42c4.43-1.54,4.97-2.53,4.75-7.14c-1.01-21.12-1.95-42.25-2.91-63.37
		c-1.02-22.21-2.04-44.41-3.06-66.62c-0.01-0.22-0.03-0.43-0.04-0.65c-0.47-8.25-0.07-8.87,8.02-9.95
		c14.69-1.97,29.42-3.71,44.1-5.72c10.29-1.41,20.5-3.38,30.8-4.66c27.95-3.47,56.4,16.73,61.52,43.73
		c1.09,5.72,1.12,11.64,1.69,17.46c1.33,13.46,2.6,26.92,4.07,40.37c0.83,7.63,2.05,15.22,3.01,22.84c0.74,5.91,1.37,11.82,2,17.74
		c0.87,8.18,1.83,16.35,2.49,24.54c0.64,7.93,0.32,15.86-2.02,23.52c-5.2,17-17.82,25.92-34.34,29.09
		c-14.31,2.75-28.94,3.93-43.44,5.7c-3.88,0.47-4.65,1.21-4.55,5.05c0.27,10.06,0.43,20.13,0.69,30.19
		c0.07,2.49,0.44,4.97,0.54,7.46c0.22,5.47-1.21,7.52-6.42,8.9c-10.25,2.73-20.52,5.39-30.79,8.03c-6.5,1.67-13.01,3.31-19.54,4.85
		c-4.21,1-5.62-0.08-5.81-4.37c-0.65-15.28-1.23-30.55-1.85-45.83c-0.24-5.93-0.42-11.87-0.8-17.79c-0.13-2.09-0.78-3.75-3.74-2.74
		c-16.29,5.54-32.66,10.84-48.95,16.38c-23.77,8.09-47.48,16.39-71.25,24.47c-19.88,6.76-39.82,13.35-59.75,19.96
		c-3.55,1.18-4.76,0.36-4.94-3.48c-0.33-7.24-0.5-14.49-0.64-21.74c-1.02-51.47-2.01-102.93-3.01-154.4
		c-0.02-0.87-0.02-1.75-0.19-2.59c-0.57-2.79-2.16-3.72-4.9-2.94c-1.98,0.57-3.94,1.2-5.93,1.71c-3.32,0.85-4.77-0.06-5.03-3.47
		c-0.57-7.68-1.02-15.36-1.46-23.05c-0.54-9.42-1.05-18.84-1.5-28.26c-0.21-4.36,0.72-5.83,4.85-7.31
		c4.58-1.64,9.25-3.06,13.88-4.57c22.54-7.35,45.09-14.66,67.61-22.07c21.59-7.1,43.15-14.27,64.71-21.47
		c3.9-1.3,7.68-2.95,11.57-4.27c1.72-0.59,3.56-1.02,5.36-1.08c2.37-0.08,3.71,1.1,3.82,3.76c0.55,13.65,1.22,27.3,1.86,40.95
		c0.17,3.57,0.57,7.15,0.5,10.71c-0.11,5.18-1.09,6.25-5.98,7.88c-24.76,8.23-49.5,16.48-74.27,24.67
		c-3.12,1.03-4.76,3.14-4.72,6.23c0.08,6.71,0.24,13.44,0.75,20.13c0.32,4.24,2.56,5.11,7.33,3.47
		c20.36-7.03,40.73-14.06,61.09-21.08c4.93-1.7,5.27-1.54,5.9,3.6c0.29,2.35,0.25,4.75,0.36,7.13
		C164.59,275.18,164.54,275.19,164.5,275.19z M266.77,243.36c0.07,0,0.14,0,0.2-0.01c1.04,22.08,2.07,44.16,3.12,66.24
		c0.83,17.32,1.68,34.63,2.55,51.95c0.2,4.04,2.18,5.61,6.17,5.1c2.04-0.26,4.07-0.64,6.12-0.75c10.73-0.57,15.84-6.17,14.82-16.91
		c-1.67-17.45-3.59-34.87-5.41-52.3c-1.16-11.07-2.21-22.15-3.56-33.2c-0.78-6.43-1.95-12.83-3.14-19.2c-0.73-3.89-3.01-7-6.9-7.87
		c-3.42-0.76-7.07-0.7-10.6-0.63c-2.26,0.05-3.37,1.72-3.37,4.01C266.77,240.98,266.77,242.17,266.77,243.36z M217.71,473.32
		c3.32-0.85,6.03-1.54,8.74-2.24c13.94-3.58,27.88-7.14,41.81-10.77c1.8-0.47,4.15-0.46,4.45-3.66
		c-17.09,4.41-33.88,8.75-50.94,13.15c-0.16-1.53-0.32-2.48-0.35-3.43c-0.53-13.87-1.02-27.74-1.58-41.6
		c-0.27-6.8-0.36-13.63-1.08-20.39c-0.61-5.78-4.05-7.37-9.52-5.15c-2.61,1.06-5.25,2.03-7.92,2.93
		c-23.17,7.81-46.36,15.57-69.53,23.38c-27.79,9.37-55.55,18.81-83.34,28.17c-5.91,1.99-11.88,3.79-17.96,5.73
		c-0.18-0.66-0.38-1.05-0.39-1.45c-0.25-11.58-0.56-23.16-0.7-34.74c-0.12-9.84,0.13-19.7-0.08-29.54
		c-0.6-28.08-1.36-56.15-2.04-84.22c-0.22-9-0.33-18-0.61-26.99c-0.21-6.78-4.46-9.79-10.82-7.87c-1.63,0.49-3.27,0.92-5.25,1.48
		c-1.03-17.42-2.03-34.44-3.04-51.59c-2.89,0.2-3.97,1.39-3.79,4.18c0.62,9.85,1.03,19.71,1.58,29.56c0.4,7.02,0.9,14.04,1.38,21.43
		c2.38-0.67,4.54-1.27,6.69-1.88c3.57-1.01,6.29-0.15,7.9,3.14c0.91,1.86,1.37,4.12,1.42,6.21c0.95,36.42,1.85,72.84,2.63,109.26
		c0.22,10.38-0.05,20.78,0.05,31.17c0.1,10.5,0.38,20.99,0.61,31.49c0.03,1.25,0.23,2.49,0.36,3.87c0.8-0.13,1.23-0.14,1.62-0.27
		c19.5-6.51,39.02-12.97,58.48-19.58c24.08-8.18,48.1-16.53,72.17-24.72c15.97-5.44,32-10.73,47.99-16.11
		c4.2-1.41,7.48,0.28,8.05,4.77c0.57,4.48,0.54,9.04,0.72,13.57c0.45,11.05,0.85,22.1,1.31,33.14
		C217.01,460.1,217.36,466.46,217.71,473.32z M301.25,361.73c0.31,0.24,0.62,0.48,0.93,0.72c1.43-2.43,3.44-4.71,4.16-7.34
		c0.89-3.27,1.22-6.88,0.91-10.26c-1.49-16.47-3.22-32.93-4.98-49.38c-1.07-9.99-2.33-19.96-3.57-29.93
		c-1.03-8.26-1.92-16.55-3.32-24.74c-1.21-7.08-5.99-11.49-12.86-12.31c-2.99-0.36-6.07-0.23-9.08,0.01
		c-2.22,0.18-4.33,0.99-5.13,3.19c2.66,0,5.24-0.09,7.82,0.02c8.08,0.34,13.45,4.4,15.19,11.71c0.98,4.1,1.79,8.26,2.28,12.44
		c1.6,13.63,3.04,27.28,4.49,40.93c1.5,14.08,2.95,28.17,4.41,42.26C303.29,346.67,304.82,354.34,301.25,361.73z M211.82,343.91
		c3.29-1.77,3.99-4.61,3.81-7.98c-0.53-9.63-1.03-19.27-1.45-28.91c-1.39-31.95-2.74-63.91-4.12-95.86
		c-0.14-3.2-0.45-6.39-0.67-9.49c-3.13-0.62-3.95,0.67-3.8,3.33c0.51,9.09,0.93,18.19,1.33,27.29c1.02,23.07,2.02,46.14,3.03,69.21
		C210.56,315.57,211.19,329.64,211.82,343.91z M276.11,407.34c0.14,0.45,0.27,0.89,0.41,1.34c2.35-0.14,4.72-0.14,7.05-0.45
		c8.03-1.07,16.05-2.25,24.06-3.4c6.08-0.88,12.24-1.43,18.23-2.77c6.22-1.4,11.79-4.44,16.08-8c-5.59,1.82-11.73,4.13-18.05,5.77
		c-4.04,1.04-8.35,1.06-12.54,1.57c-9.65,1.17-19.3,2.26-28.93,3.61C280.25,405.31,278.21,406.54,276.11,407.34z M91.11,251.68
		c0.11,0.21,0.22,0.42,0.33,0.63c0.31,0,0.65,0.08,0.94-0.01c25.36-8.41,50.73-16.81,76.07-25.3c0.79-0.26,1.31-1.32,2.53-2.62
		c-1.46,0.17-1.8,0.15-2.1,0.25c-24.24,8.03-48.48,16.04-72.69,24.15C94.38,249.39,92.8,250.7,91.11,251.68z M95.48,343.33
		c0.12,0.25,0.23,0.5,0.35,0.75c0.39-0.07,0.79-0.1,1.16-0.22c11.12-3.57,22.23-7.14,33.34-10.74c9.36-3.03,18.71-6.06,28.04-9.19
		c1.58-0.53,2.98-1.6,4.46-2.43c-0.16-0.31-0.33-0.61-0.49-0.92c-0.51,0.08-1.04,0.09-1.53,0.25c-19.65,6.34-39.3,12.66-58.91,19.11
		C99.63,340.69,97.61,342.18,95.48,343.33z"/>
	<path d="M511.67,386.9c-11.59,0.27-22.66-1.34-32.86-7.4c-4.83-2.87-8.35-6.71-11.12-11.53c-5.84-10.14-7.59-21.33-8.79-32.68
		c-1.13-10.76-2.21-21.52-3.31-32.28c-1.26-12.37-2.45-24.75-3.79-37.12c-1.37-12.69-2.99-25.35-4.27-38.05
		c-0.88-8.75-1.23-17.57,1.08-26.18c4.05-15.16,13.89-25.35,28.27-30.91c22.71-8.78,46.32-10.98,70.32-7.45
		c22.04,3.24,34.04,15.32,38.34,37.43c0.99,5.1,1.88,10.21,2.73,15.33c0.95,5.72-0.28,7.79-5.76,9.43
		c-14.72,4.41-29.46,8.75-44.2,13.08c-4.51,1.32-6.14,0-6.61-4.65c-0.53-5.16-1.07-10.35-2.08-15.44
		c-1.28-6.41-6.29-9.35-13.53-8.45c-6.72,0.83-10.71,4.88-10.41,11.33c0.3,6.47,1.12,12.92,1.81,19.37
		c1.02,9.57,2.14,19.14,3.19,28.71c1.3,11.94,2.59,23.88,3.84,35.82c0.78,7.42,1.52,14.85,2.23,22.27
		c0.69,7.14,3.76,10.83,9.67,11.48c7.63,0.85,13.04-1.91,14.5-8.29c0.74-3.22,0.25-6.88-0.37-10.22c-1.79-9.65-1.06-10.7,8.43-13.4
		c13.63-3.88,27.18-8.05,40.74-12.17c4.45-1.35,6.58-0.04,7.03,4.53c0.99,10.14,2.02,20.27,3,30.41c0.95,9.84-0.93,19.26-5.06,28.13
		c-3.74,8.04-10.69,12.97-18.4,16.76c-14.44,7.1-29.96,9.76-45.85,10.81C524.19,385.99,517.93,386.45,511.67,386.9z M583.14,366.6
		c-0.2-0.28-0.4-0.55-0.61-0.83c-10.3,5.56-21.22,9.22-32.81,10.7c-6.55,0.83-13.11,1.81-19.69,2.05
		c-9.83,0.36-19.76,0.93-29.49-0.08c-9.23-0.96-17.95-4.62-23.66-12.67c-4.3-6.06-7.2-12.92-8.28-20.29
		c-1.27-8.67-2-17.42-2.99-26.14c-1.4-12.36-2.86-24.71-4.21-37.07c-1.27-11.62-2.48-23.24-3.64-34.87
		c-1.09-10.99-2.34-21.97-3.03-32.98c-0.64-10.19,1.51-19.84,7.53-28.36c0.21-0.29,0.3-0.67,0.44-1
		c-6.16,5.51-9.72,12.41-11.07,20.37c-1.63,9.61-0.72,19.16,0.53,28.79c1.95,15.02,3.24,30.12,4.78,45.2
		c0.74,7.21,1.37,14.43,2.13,21.63c1.1,10.44,2.41,20.86,3.38,31.32c1.09,11.81,2.38,23.57,8.71,33.97c1.72,2.82,3.73,5.77,6.32,7.7
		c6.89,5.14,14.77,8.44,23.45,8.55c9.94,0.12,19.91-0.2,29.83-0.78c14.01-0.83,27.77-3.16,40.7-8.95
		C575.5,371.04,579.26,368.69,583.14,366.6z M539.67,231.71c-0.33-3.31-0.53-6.44-0.99-9.52c-0.48-3.2-1.08-6.41-1.9-9.54
		c-1.48-5.66-5.55-8.6-11.05-9.69c-6.51-1.29-13.08,0.77-16.48,5.15c0.6-0.21,0.99-0.34,1.37-0.48c12.1-4.41,20.8,0.32,23.26,12.86
		c0.94,4.81,1.35,9.73,2.02,14.76c1.16-0.3,2.1-0.52,3.02-0.79c8.69-2.61,17.38-5.26,26.08-7.84c5.49-1.63,11.03-3.1,16.5-4.79
		c1.29-0.4,2.39-1.43,3.57-2.17c-0.21-0.41-0.42-0.82-0.63-1.23C569.58,222.84,554.72,227.24,539.67,231.71z M547.18,311.64
		c-3.9,1.16-4.15,1.53-3.52,5c0.25,1.38,0.56,2.74,0.84,4.12c0.9,4.49,1.53,8.95-0.67,13.29c-0.24,0.48-0.27,1.06-0.55,2.28
		C551.76,328.77,549.09,320.29,547.18,311.64z"/>
	<path d="M416.96,176.86c5.43-0.19,7.22,1.32,7.86,7.08c1.17,10.55,2.24,21.12,3.32,31.68c1.54,15.07,3.02,30.15,4.58,45.22
		c1.26,12.16,2.57,24.31,3.9,36.46c1.77,16.14,3.63,32.28,5.37,48.42c0.98,9.14,1.73,18.31,2.7,27.45c0.6,5.59,1.55,11.15,2.1,16.74
		c0.4,4.1-0.92,5.34-5.07,5.82c-15.27,1.77-30.53,3.58-45.8,5.37c-0.97,0.11-1.94,0.23-2.91,0.25c-3.8,0.07-5.19-1.03-5.6-4.73
		c-1.19-10.55-2.3-21.11-3.44-31.67c-2.26-21.01-4.55-42.01-6.77-63.03c-0.88-8.29-1.52-16.6-2.4-24.89
		c-1.24-11.73-2.54-23.45-3.94-35.16c-0.28-2.32-1.26-4.47-4.15-4.61c-4.88-0.23-6.23-1.38-6.81-6.17c-0.6-4.94-1.09-9.9-1.64-14.85
		c-0.9-8.07-1.72-16.14-2.75-24.19c-0.88-6.9,0.61-8.66,7.54-9.37c16.25-1.67,32.48-3.53,48.71-5.31
		C413.51,177.18,415.24,177.03,416.96,176.86z M367.98,229.92c-1.68-14.36-3.37-28.79-5.06-43.21c-3.01-0.18-4.13,0.86-3.78,3.8
		c1.11,9.24,1.99,18.5,3.01,27.75c0.47,4.31,0.94,8.62,1.68,12.88c0.16,0.9,1.4,2.22,2.25,2.3c5.06,0.51,8,3.08,8.61,8.35
		c1.4,12.15,2.71,24.3,3.97,36.47c1.25,12.07,2.32,24.16,3.6,36.23c2.25,21.23,4.59,42.44,6.91,63.66
		c0.7,6.43,1.45,12.85,2.23,19.71c4.3-0.54,8.25-1.07,12.21-1.52c12.36-1.41,24.73-2.81,37.1-4.16c2.3-0.25,3.06-1.11,1.91-3.28
		c-15.85,1.78-31.57,3.55-47.38,5.33c-1.89-17.58-3.74-34.49-5.53-51.41c-3.67-34.57-7.33-69.14-10.97-103.72
		C378.08,232.89,374.67,229.74,367.98,229.92z"/>
	<path d="M422.16,154.41c0.2,3.34-1.64,5.44-5.05,5.8c-15.63,1.65-31.25,3.3-46.88,4.93c-5.62,0.58-6.57-0.41-7.15-5.97
		c-0.77-7.32-1.71-14.62-2.86-21.89c-1.01-6.4,0.54-8.3,7.09-8.99c15.06-1.59,30.09-3.4,45.13-5.19c3.52-0.42,6.77,1.38,7.1,4.5
		C420.49,136.52,421.3,145.46,422.16,154.41z M367.63,132.37c-3.13-0.65-4.38,0.36-3.88,3.35c0.31,1.81,0.49,3.64,0.73,5.46
		c0.86,6.72,1.71,13.44,2.54,19.93c0.51,0.21,0.61,0.3,0.7,0.29c16.26-1.6,32.51-3.2,48.77-4.84c2.07-0.21,2.29-1.52,1.65-3.44
		c-15.75,1.69-31.37,3.36-47.12,5.05C369.84,149.19,368.73,140.76,367.63,132.37z"/>
</g>
</svg>
